<?xml version="1.0" encoding="UTF-8"?>
<svg width="32px" height="32px" viewBox="0 0 32 32" version="1.1" xmlns="http://www.w3.org/2000/svg" xmlns:xlink="http://www.w3.org/1999/xlink">
    <title>ICONS/INGREDIENTES/32/32_cebolla_2</title>
    <g id="ICONS/INGREDIENTES/32/32_cebolla_2" stroke="none" stroke-width="1" fill="none" fill-rule="evenodd">
        <path d="M22.1670491,28.8091466 C25.6826901,26.1714354 26.4348095,21.1280128 23.8506927,17.5417313 C23.6137866,17.2125888 23.3504298,16.901732 23.0675224,16.6125895 L20.6559101,14.152021 C19.4598791,12.9348796 18.7353604,11.3188815 18.6169073,9.60002633 L18.6203574,9.60002633 C18.7675612,10.9143105 19.4368785,12.1097377 20.4719053,12.9063082 L23.9576455,15.5725907 C27.266281,18.1028735 27.9390484,22.8891536 25.4584343,26.2651496 C24.6177625,27.411434 23.476933,28.2925758 22.1670491,28.8091466 M22.0140952,25.7874359 C22.5258584,23.2034389 22.045146,20.5165849 20.6708605,18.2834447 L19.6818349,16.6685895 C18.5697561,14.849163 17.8728381,12.7977369 17.6405321,10.6663108 L17.7026337,10.6663108 C18.0085416,12.273166 18.7790615,13.7497357 19.9141409,14.905163 L22.3269033,17.3668743 C25.0087726,20.1005854 25.0099227,24.5348659 22.3315034,27.2708627 C21.8323905,27.7805764 21.2585257,28.2080045 20.6317594,28.5394326 C21.3321276,27.7691478 21.8105399,26.8171489 22.0140952,25.7874359 M15.6003793,29.242289 C13.7879324,28.8720037 12.3710958,27.4274339 12.0088364,25.5771504 L12.0099865,25.5771504 C11.5534247,23.2605817 11.9835358,20.8525845 13.2129176,18.8491583 L14.2019432,17.2343031 C15.4221247,15.245734 16.1788443,13.0000223 16.4169004,10.6663108 L16.5848048,10.6663108 C16.8217109,12.9988795 17.5784305,15.245734 18.796312,17.2343031 L19.7864876,18.8491583 C21.0158694,20.8525845 21.4459805,23.2605817 20.9882687,25.5771504 C20.4926058,28.1074331 18.0798434,29.7474312 15.6003793,29.242289 M9.42701966,19.1017294 C9.75247808,18.4617302 10.1710889,17.876588 10.6713518,17.3668743 L13.0841142,14.905163 C14.4722001,13.4971646 15.3082718,11.6194525 15.434775,9.62631202 C15.3427727,12.1211662 14.6136538,14.5485919 13.3175703,16.6663037 L12.3285447,18.2834447 C10.9554092,20.5165849 10.4746968,23.2034389 10.98531,25.7874359 C11.1877152,26.8171489 11.6661276,27.7691478 12.3664957,28.5405755 C9.00035863,26.761149 7.68357458,22.5360111 9.42701966,19.1017294 M6.04478219,21.689155 C6.05053234,19.2845864 7.16031104,17.020589 9.04290973,15.5725907 L12.5263498,12.9063082 C13.5636766,12.1097377 14.232994,10.9143105 14.3801978,9.60002633 L14.3824978,9.60002633 C14.2651948,11.3188815 13.5406761,12.9348796 12.3446451,14.152021 L9.93188272,16.6125895 C6.84520289,19.7577287 6.84060277,24.859437 9.92268248,28.0102904 C10.2055898,28.2994329 10.5091977,28.5668612 10.833506,28.8091466 C7.95153151,27.6685765 6.05053234,24.8422941 6.04478219,21.689155 M13.7971327,2.88689137 C13.3233204,2.40574908 13.0059122,1.78746409 12.8909092,1.11775059 C13.5487263,1.23546474 14.1536419,1.55889293 14.6251541,2.04117808 C15.8234851,3.26631949 16.4974025,4.92688897 16.4997026,6.6583155 L16.4997026,8.53259902 L15.4543255,8.53259902 L15.4543255,6.97145799 C15.4589257,5.43774551 14.8609102,3.96803295 13.7971327,2.88689137 M18.3742511,3.10746254 C18.8457633,2.62517739 19.4518289,2.30289205 20.1096459,2.18403505 C19.9923429,2.8548914 19.6772348,3.47317639 19.2034225,3.95317583 C18.138495,5.03431741 17.5416295,6.50517283 17.5450796,8.03774245 L17.5450796,6.6583155 C17.5450796,6.47660143 17.5381794,6.29603022 17.5255291,6.11660186 C17.522079,6.05831621 17.5140288,6.00003056 17.5082787,5.94288777 C17.4967784,5.81945935 17.4852781,5.69717378 17.4680276,5.57603106 C17.4576774,5.50631686 17.445027,5.43888837 17.4335267,5.37031702 C17.4139762,5.26060286 17.3955757,5.15088871 17.3714251,5.0423174 C17.3553247,4.96803178 17.3380743,4.89374615 17.3196738,4.81946052 C17.3035734,4.75660345 17.2920731,4.69146067 17.2736726,4.62746075 C17.5657801,4.06860426 17.9372398,3.55660487 18.3742511,3.10746254 M28,21.689155 C27.9930998,18.9485868 26.7303672,16.3691612 24.5855617,14.7200203 L21.0998215,12.0525949 C20.1809478,11.34631 19.6392838,10.2400256 19.6369837,9.06631267 L19.6369837,8.53259902 L18.5916067,8.53259902 L18.5916067,8.03774245 C18.5881566,6.78745821 19.0746192,5.58860248 19.9417416,4.70860351 C20.7536626,3.88574734 21.2079243,2.76574865 21.2044743,1.60003574 L21.2044743,1.06632208 L20.6823608,1.06632208 C19.5392312,1.06289351 18.4421028,1.52689297 17.635932,2.35432056 C17.328874,2.66860591 17.0505668,3.01146265 16.8033104,3.37831936 C16.4422011,2.60346313 15.9568885,1.89603539 15.3646232,1.28689325 C14.5584524,0.459465649 13.461324,-0.00339094955 12.3181944,1.87052537e-05 L11.7949309,1.87052537e-05 L11.7949309,0.53260842 C11.7926308,1.69946419 12.2468926,2.81832002 13.0576636,3.64117619 C13.925936,4.52231802 14.4123986,5.72117375 14.4089485,6.97145799 L14.4089485,8.53259902 L13.3635715,8.53259902 L13.3635715,9.06631267 C13.3612714,10.2400256 12.8196074,11.34631 11.8995836,12.0525949 L8.41499349,14.7200203 C4.645196,17.6034455 3.87927619,23.0605819 6.70489927,26.9074346 C8.28504013,29.0582892 10.7484038,30.3428591 13.3808219,30.390859 C13.0323629,30.8525728 12.842608,31.4171435 12.841458,32 L13.886835,32 C13.8891351,31.294858 14.3433968,30.6754301 15.0046639,30.4754304 C14.9586627,30.6228588 14.9345121,30.7771443 14.932212,30.9325727 L14.932212,32 L15.9775891,32 L15.9775891,30.9325727 C15.9775891,30.6388587 16.2110451,30.4000019 16.4997026,30.4000019 C16.78836,30.4000019 17.0218161,30.6388587 17.0218161,30.9325727 L17.0218161,32 L18.0683431,32 L18.0683431,30.9325727 C18.0660431,30.7771443 18.0407424,30.6228588 17.9947412,30.4754304 C18.6560083,30.6754301 19.1114201,31.294858 19.1137202,32 L20.1590972,32 C20.1567972,31.4171435 19.9658922,30.8525728 19.6162832,30.3920019 C24.2670035,30.3028591 27.9930998,26.4342923 28,21.689155" id="Fill-1" fill="#BDAD90"></path>
    </g>
</svg>