<?xml version="1.0" encoding="UTF-8"?>
<svg width="32px" height="32px" viewBox="0 0 32 32" version="1.1" xmlns="http://www.w3.org/2000/svg" xmlns:xlink="http://www.w3.org/1999/xlink">
    <title>ICONS/INGREDIENTES/32/32_aceitunas</title>
    <g id="ICONS/INGREDIENTES/32/32_aceitunas" stroke="none" stroke-width="1" fill="none" fill-rule="evenodd">
        <path d="M24.8088915,27.9093828 C24.1451446,29.0405939 23.1652083,29.8979458 21.9757338,30.3926193 C20.7787309,30.8897601 19.6068225,30.8909937 18.4048008,30.3926193 C17.2354018,29.906581 16.2717768,29.0640323 15.5804261,27.9093828 C14.2617155,25.0375622 14.3181779,22.3631177 15.7460492,20.3770219 C16.9141935,18.7536044 18.9016699,17.8481421 20.9355709,18.0196125 C21.2793642,18.0812925 21.6319405,18.1824477 21.9757338,18.3243117 C23.1652083,18.8177516 24.1451446,19.6763371 24.8088915,20.8075482 C25.4211948,21.8511737 25.7449126,23.0786056 25.7449126,24.3590823 C25.7449126,25.6370918 25.4211948,26.8657573 24.8088915,27.9093828 M10.3281684,28.6224035 C9.68575176,28.5187811 9.10983529,28.3103027 8.61547563,28.00437 C8.12111596,27.6972036 7.68196397,27.2753124 7.30931215,26.7510325 C6.57153681,25.7111078 6.20892274,24.4701063 6.26036626,23.1649576 C6.30804562,21.9621977 6.69951824,20.7532698 7.3946331,19.6701691 C8.08849324,18.5895356 9.0282785,17.7198477 10.1136113,17.1573262 C11.2892839,16.550395 12.5829001,16.3357486 13.8564409,16.5429934 C14.1789039,16.5960382 14.4925839,16.6823902 14.7899526,16.7921806 C15.4072748,17.148691 15.899125,17.6001885 16.3182015,18.1022637 C15.710917,18.5340236 15.1638591,19.050902 14.7221977,19.6652347 C13.1399958,21.8635097 12.9806464,24.8352519 14.2240739,27.8945796 C13.0120144,28.5607235 11.6506432,28.8358163 10.3281684,28.6224035 M17.8238654,13.6970785 C18.0459509,13.4540593 18.2755646,13.2221425 18.5064331,12.9951601 C19.2592651,12.782981 19.90921,12.5473634 20.4901454,12.3006434 C20.2743335,14.142408 20.2906449,15.7288175 20.3496167,16.7761438 C19.3332935,16.7934142 18.3357912,17.0216302 17.4286286,17.4447549 C17.0145711,16.9180078 16.517702,16.451707 15.9367666,16.0532543 C16.3847016,15.4056143 17.0120616,14.580336 17.8238654,13.6970785 M15.9166911,12.0378866 C11.6092375,12.0378866 8.15624812,9.68171085 8.01070061,9.58178926 C7.93541741,9.52997806 7.89024749,9.44362607 7.88896729,9.35233968 C7.88773805,9.25981969 7.93290797,9.17223409 8.00568173,9.1191893 C8.08723852,9.0624437 9.91662023,7.77703262 12.5540416,7.04057349 C14.8075186,9.00569811 17.4110626,10.0246516 20.097418,10.0246516 C20.8439764,10.0246516 21.5955536,9.94446762 22.3483856,9.78780044 C21.4989402,10.4946532 20.200305,11.2594851 18.0233659,11.8528466 C17.3433077,11.9700386 16.6670136,12.0317186 15.9166911,12.0378866 M9.99817703,1.67318038 C9.95928071,1.58929559 9.96429959,1.4906076 10.0094695,1.41289081 C10.0571489,1.33394041 10.1412151,1.27966202 10.2353191,1.27102682 C10.4109799,1.25128922 14.6431503,0.856537257 18.4286405,3.00053386 C21.0961751,4.51046012 22.7762451,6.8789719 23.5366054,8.14341179 C19.8991723,9.45472847 16.1425407,8.67139254 13.1337222,5.90319439 C11.1136231,3.98124577 10.1048282,1.90016276 9.99817703,1.67318038 M25.7348748,9.04393971 C25.7762806,9.19690609 25.6834313,9.35357328 25.5291007,9.39428207 C25.0196844,9.52874446 24.515287,9.71131724 24.0121443,9.91732843 C24.2141542,9.69774765 24.3935792,9.49050286 24.5366172,9.31656528 C24.6357401,9.19690609 24.7185516,9.1056197 24.8013631,9.01433331 C24.9933353,8.95265331 25.1865622,8.89344052 25.3797891,8.84286292 C25.5328649,8.80215413 25.693469,8.89220692 25.7348748,9.04393971 M25.8942242,20.1907483 C25.0937129,18.8251532 23.9067478,17.7864621 22.4625651,17.1881662 C22.1827626,17.0722078 21.8991959,16.9772206 21.6131197,16.9032046 C21.5516384,15.9496319 21.517761,14.419968 21.7122426,12.628781 C23.0535382,11.6419011 24.443768,10.9560195 25.8528185,10.5859396 C26.6746601,10.3700596 27.1665103,9.53614606 26.948189,8.72567093 C26.7261036,7.91642941 25.8791676,7.43285825 25.0560713,7.65120543 C24.954439,7.67711103 24.8540614,7.70548383 24.7524291,7.73385663 C23.9255686,6.30288076 22.0861491,3.6481738 19.0560004,1.93223636 C14.9216982,-0.407902627 10.3005645,0.0238573331 10.1085924,0.0435949313 C9.61674216,0.0917053269 9.17257129,0.372966101 8.92288202,0.797324462 C8.67695691,1.21921562 8.65060779,1.73732758 8.85638186,2.18512433 C8.96052362,2.40840591 9.83004455,4.20329375 11.5339543,6.04999278 C9.09979753,6.83949671 7.46740686,7.9781094 7.26790639,8.12120699 C6.866396,8.40986936 6.63050865,8.87370292 6.63427281,9.36220848 C6.63803697,9.84948043 6.88270736,10.3083796 7.28798191,10.5896404 C7.44607662,10.6994308 11.2152554,13.2714865 16.0220876,13.2714865 L16.0233423,13.2714865 C16.1964936,13.2702529 16.369645,13.2640849 16.5453058,13.2566833 C15.8037663,14.1004656 15.2215762,14.8838016 14.8050092,15.4931999 C14.5628483,15.4228847 14.3144137,15.3673727 14.0609603,15.3266639 C12.5101264,15.0725424 10.9467453,15.3303647 9.52765704,16.0655903 C8.2490974,16.729267 7.14368911,17.7482205 6.33314001,19.0126604 C5.52259092,20.2771003 5.06336341,21.6969737 5.00564629,23.1180808 C4.94416502,24.6946215 5.38582644,26.1946789 6.27918706,27.4566516 C6.74845232,28.1166276 7.31056687,28.6532435 7.94670989,29.0467619 C8.58285291,29.4427474 9.31560937,29.7079714 10.1249037,29.838733 C11.7146339,30.0965554 13.3558076,29.8029586 14.801245,29.0183891 C15.585445,30.1421986 16.6532117,31.0032513 17.9179694,31.5287648 C18.6733108,31.8420992 19.43869,32 20.1902673,32 C20.944354,32 21.7084784,31.8420992 22.4638199,31.5287648 C23.9067478,30.9292353 25.0937129,29.8905442 25.8942242,28.5261827 C26.6169429,27.29505 26.9996325,25.8529718 26.9996325,24.3590823 C26.9996325,22.8627256 26.6169429,21.421881 25.8942242,20.1907483" id="Fill-1" fill="#BDAD90"></path>
    </g>
</svg>