<?xml version="1.0" encoding="UTF-8"?>
<svg width="32px" height="32px" viewBox="0 0 32 32" version="1.1" xmlns="http://www.w3.org/2000/svg" xmlns:xlink="http://www.w3.org/1999/xlink">
    <title>ICONS/INGREDIENTES/32/32_maiz</title>
    <g id="ICONS/INGREDIENTES/32/32_maiz" stroke="none" stroke-width="1" fill="none" fill-rule="evenodd">
        <path d="M2.7759,30.5492 L1.4499,29.2242 L2.3119,28.3612 C2.5019,28.6092 2.7019,28.8502 2.9259,29.0732 C3.1499,29.2972 3.3909,29.4982 3.6379,29.6882 L2.7759,30.5492 Z M3.8049,28.4892 C3.8199,27.6572 3.8049,27.4002 3.9769,26.5842 C4.1169,25.9202 3.1129,25.7092 2.9739,26.3722 C2.8659,26.8832 2.8939,26.8232 2.8429,27.3432 C2.2239,26.3832 1.8879,25.2662 1.8879,24.0962 C1.8879,22.4892 2.5139,20.9802 3.6499,19.8442 L5.1149,18.3792 C9.0079,14.4862 11.4749,9.5452 12.2519,4.1932 C13.0609,9.4702 12.5899,14.8552 10.8489,19.9562 C10.6549,20.5262 11.6259,20.8572 11.8199,20.2872 C11.9749,19.8332 12.1199,19.3762 12.2559,18.9172 C17.7349,17.3312 23.6809,17.5732 29.0129,19.6012 C23.1979,20.1622 17.8039,22.6982 13.6189,26.8832 L12.1549,28.3492 C11.0189,29.4852 9.5089,30.1102 7.9029,30.1112 C7.4839,30.1112 7.0729,30.0662 6.6729,29.9832 L7.2709,29.1452 C7.4089,28.9512 7.5339,28.7492 7.6689,28.5532 C9.7219,27.9012 11.6119,26.7522 13.1349,25.2292 L14.5309,23.8322 C17.0059,21.3582 20.2969,19.9952 23.7969,19.9952 C24.4489,19.9952 24.4489,18.9702 23.7969,18.9702 C20.0229,18.9702 16.4749,20.4392 13.8049,23.1082 L12.4089,24.5032 C11.3179,25.5942 10.0219,26.4752 8.6109,27.0982 C9.5689,25.5312 10.4099,23.8942 11.1039,22.1952 L11.3029,21.6722 C11.5149,21.1072 10.5549,20.7472 10.3429,21.3122 L10.1499,21.8212 C9.1819,24.1882 7.9309,26.4552 6.4349,28.5482 L5.6359,29.6672 C4.9649,29.3952 4.3479,28.9962 3.8049,28.4892 L3.8049,28.4892 Z M23.3859,17.1192 C22.9009,17.0522 22.4129,16.9982 21.9249,16.9572 L23.3079,15.5692 C23.3139,15.5632 23.3199,15.5572 23.3259,15.5502 C23.7679,15.6702 24.2219,15.7622 24.6869,15.8182 L23.3859,17.1192 Z M25.6449,14.8582 C25.1299,14.8462 24.6259,14.7952 24.1369,14.6972 C24.4829,14.3242 24.8179,13.9432 25.1429,13.5552 C25.6279,13.6772 26.1259,13.7632 26.6369,13.8052 C26.3799,14.0982 26.1149,14.3882 25.8369,14.6662 L25.6449,14.8582 Z M27.4229,12.8202 C26.8879,12.8192 26.3659,12.7642 25.8589,12.6672 C26.1569,12.2842 26.4459,11.8962 26.7249,11.5012 C27.1989,11.6242 27.6849,11.7132 28.1859,11.7552 C27.9509,12.1182 27.7039,12.4742 27.4419,12.8202 L27.4229,12.8202 Z M28.7829,10.7592 C28.2909,10.7502 27.8079,10.6992 27.3429,10.6012 C27.5729,10.2492 27.7959,9.8912 28.0119,9.5282 C28.4299,9.6392 28.8599,9.7182 29.3019,9.7572 C29.1419,10.0972 28.9659,10.4302 28.7829,10.7592 L28.7829,10.7592 Z M29.7339,8.7572 C29.3229,8.7422 28.9219,8.6942 28.5329,8.6072 C28.7279,8.2532 28.9169,7.8952 29.0979,7.5332 C29.4309,7.6082 29.7729,7.6542 30.1229,7.6732 C30.0049,8.0382 29.8759,8.4002 29.7339,8.7572 L29.7339,8.7572 Z M30.4189,6.6632 C30.1269,6.6602 29.8419,6.6312 29.5639,6.5812 C29.7209,6.2382 29.8659,5.8872 30.0119,5.5372 C30.2209,5.5822 30.4349,5.6082 30.6529,5.6232 C30.5849,5.9732 30.5069,6.3202 30.4189,6.6632 L30.4189,6.6632 Z M30.8159,4.6062 C30.2959,4.5832 29.8049,4.4502 29.3649,4.2292 C29.9009,3.4872 30.4259,2.7392 30.9399,1.9842 C30.9609,2.0742 30.9739,2.1672 30.9739,2.2632 C30.9739,3.0532 30.9179,3.8352 30.8159,4.6062 L30.8159,4.6062 Z M29.7569,1.8952 C29.3529,2.4822 28.9429,3.0632 28.5249,3.6402 C28.2029,3.3392 27.9379,2.9802 27.7439,2.5782 C28.4059,2.3272 29.0769,2.0992 29.7569,1.8952 L29.7569,1.8952 Z M29.0399,1.0422 C28.4999,1.2132 27.9649,1.3992 27.4359,1.5982 C27.4139,1.4632 27.3999,1.3242 27.3929,1.1842 C27.9369,1.1122 28.4849,1.0642 29.0399,1.0422 L29.0399,1.0422 Z M26.9299,3.2442 C26.6029,3.4862 26.2769,3.7302 25.9519,3.9762 C25.8589,3.8032 25.7769,3.6232 25.7039,3.4392 C26.0629,3.2712 26.4239,3.1122 26.7899,2.9592 C26.8349,3.0552 26.8799,3.1522 26.9299,3.2442 L26.9299,3.2442 Z M26.4619,1.9852 C26.1109,2.1302 25.7639,2.2822 25.4189,2.4412 C25.3689,2.1612 25.3389,1.8742 25.3359,1.5812 C25.6799,1.4932 26.0259,1.4142 26.3759,1.3472 C26.3909,1.5642 26.4179,1.7772 26.4619,1.9852 L26.4619,1.9852 Z M25.1369,4.6062 C24.8119,4.8592 24.4859,5.1132 24.1649,5.3702 C23.9969,5.0752 23.8519,4.7672 23.7289,4.4472 C24.0749,4.2542 24.4249,4.0692 24.7779,3.8892 C24.8819,4.1372 25.0039,4.3762 25.1369,4.6062 L25.1369,4.6062 Z M24.4659,2.8992 C24.1159,3.0742 23.7699,3.2562 23.4279,3.4442 C23.3459,3.0562 23.3029,2.6552 23.2929,2.2462 C23.6329,2.1122 23.9779,1.9892 24.3269,1.8762 C24.3459,2.2252 24.3909,2.5682 24.4659,2.8992 L24.4659,2.8992 Z M22.8329,4.9682 C22.9829,5.3352 23.1629,5.6832 23.3639,6.0192 C22.9989,6.3182 22.6359,6.6202 22.2759,6.9242 C22.0469,6.5332 21.8569,6.1212 21.6999,5.6902 C22.0719,5.4412 22.4499,5.2002 22.8329,4.9682 L22.8329,4.9682 Z M22.5079,3.9692 C22.1339,4.1922 21.7639,4.4212 21.3989,4.6592 C21.3009,4.1932 21.2489,3.7102 21.2399,3.2162 C21.5849,3.0252 21.9329,2.8422 22.2899,2.6752 C22.3259,3.1192 22.4009,3.5502 22.5079,3.9692 L22.5079,3.9692 Z M20.8309,6.2942 C21.0119,6.7482 21.2329,7.1812 21.4839,7.5942 C21.0739,7.9482 20.6659,8.3042 20.2619,8.6642 C20.0009,8.2082 19.7839,7.7252 19.6129,7.2192 C20.0119,6.9002 20.4169,6.5922 20.8309,6.2942 L20.8309,6.2942 Z M20.4979,5.2692 C20.1019,5.5492 19.7129,5.8402 19.3299,6.1382 C19.2359,5.6442 19.1819,5.1352 19.1819,4.6142 L19.1839,4.5542 C19.5289,4.2932 19.8829,4.0472 20.2449,3.8132 C20.2869,4.3122 20.3749,4.7982 20.4979,5.2692 L20.4979,5.2692 Z M18.7789,7.9122 C18.9749,8.4202 19.2129,8.9042 19.4909,9.3652 C19.0879,9.7332 18.6879,10.1042 18.2919,10.4792 C18.0189,10.0042 17.7909,9.5022 17.6099,8.9772 C17.9909,8.6122 18.3799,8.2562 18.7789,7.9122 L18.7789,7.9122 Z M18.4449,6.8522 C18.0569,7.1772 17.6739,7.5122 17.3009,7.8572 C17.2039,7.3702 17.1529,6.8672 17.1419,6.3542 L17.3329,6.1622 C17.6119,5.8832 17.9009,5.6192 18.1959,5.3612 C18.2369,5.8722 18.3239,6.3682 18.4449,6.8522 L18.4449,6.8522 Z M16.8079,9.7642 C17.0089,10.2662 17.2539,10.7442 17.5319,11.2012 C17.1469,11.5732 16.7639,11.9472 16.3859,12.3252 L15.6949,13.0202 C15.4299,12.5502 15.2109,12.0532 15.0359,11.5372 L16.8079,9.7642 Z M16.4489,8.6742 C16.4429,8.6802 16.4359,8.6862 16.4289,8.6932 L14.7329,10.3892 C14.6409,9.9112 14.5869,9.4202 14.5759,8.9202 L16.1819,7.3142 C16.2379,7.7782 16.3299,8.2312 16.4489,8.6742 L16.4489,8.6742 Z M17.3759,16.4632 L16.8429,16.9952 C16.0449,17.0752 15.2499,17.1922 14.4619,17.3412 C14.1939,17.0652 13.9449,16.7712 13.7169,16.4632 L15.5369,14.6332 C16.0609,15.3192 16.6779,15.9342 17.3759,16.4632 L17.3759,16.4632 Z M18.9489,14.8892 L18.1089,15.7302 C17.3999,15.2112 16.7819,14.5932 16.2689,13.8982 L17.1119,13.0492 C17.4449,12.7172 17.7819,12.3892 18.1199,12.0612 C18.6439,12.7432 19.2539,13.3542 19.9369,13.8782 C19.6089,14.2162 19.2819,14.5562 18.9489,14.8892 L18.9489,14.8892 Z M22.2359,15.1922 L20.5559,16.8792 C20.4399,16.8752 20.3229,16.8702 20.2069,16.8662 L20.1029,16.8332 C19.7139,16.6812 19.3429,16.5012 18.9869,16.3002 L19.6739,15.6142 C20.0519,15.2362 20.4229,14.8502 20.7949,14.4652 C21.2529,14.7452 21.7329,14.9902 22.2359,15.1922 L22.2359,15.1922 Z M24.0799,13.2202 C23.7369,13.6172 23.3829,14.0062 23.0169,14.3872 C22.4939,14.2072 21.9939,13.9802 21.5209,13.7082 C21.8959,13.3122 22.2659,12.9132 22.6339,12.5092 C23.0919,12.7872 23.5739,13.0252 24.0799,13.2202 L24.0799,13.2202 Z M25.7059,11.1692 C25.4089,11.5812 25.1019,11.9852 24.7829,12.3812 C24.2759,12.2102 23.7909,11.9922 23.3329,11.7312 C23.6929,11.3272 24.0529,10.9252 24.4059,10.5162 C24.8189,10.7672 25.2519,10.9882 25.7059,11.1692 L25.7059,11.1692 Z M27.0119,9.1942 C26.7859,9.5672 26.5539,9.9372 26.3109,10.3002 C25.8789,10.1432 25.4649,9.9512 25.0729,9.7232 C25.3729,9.3662 25.6739,9.0122 25.9689,8.6522 C26.3019,8.8572 26.6489,9.0412 27.0119,9.1942 L27.0119,9.1942 Z M26.5309,4.8242 C26.8599,4.5722 27.1919,4.3252 27.5249,4.0792 C27.6489,4.2192 27.7809,4.3522 27.9219,4.4772 C27.6749,4.8092 27.4219,5.1352 27.1709,5.4652 C26.9399,5.2702 26.7249,5.0552 26.5309,4.8242 L26.5309,4.8242 Z M24.7399,6.2232 C25.0649,5.9642 25.3909,5.7082 25.7189,5.4532 C25.9689,5.7552 26.2469,6.0332 26.5489,6.2832 C26.2919,6.6122 26.0279,6.9372 25.7669,7.2632 C25.3879,6.9552 25.0449,6.6062 24.7399,6.2232 L24.7399,6.2232 Z M22.8519,7.7782 C23.2149,7.4722 23.5789,7.1672 23.9469,6.8662 C24.2969,7.3062 24.6929,7.7072 25.1289,8.0612 C24.8289,8.4262 24.5229,8.7852 24.2189,9.1462 C23.7079,8.7492 23.2489,8.2902 22.8519,7.7782 L22.8519,7.7782 Z M21.7779,11.9252 C21.4059,12.3322 21.0339,12.7362 20.6549,13.1352 C19.9749,12.6292 19.3729,12.0272 18.8659,11.3472 C19.2649,10.9682 19.6679,10.5922 20.0749,10.2202 C20.5669,10.8612 21.1379,11.4332 21.7779,11.9252 L21.7779,11.9252 Z M20.8359,9.5282 C21.2439,9.1632 21.6559,8.8022 22.0709,8.4442 C22.5049,8.9972 23.0039,9.4952 23.5569,9.9292 C23.1989,10.3432 22.8349,10.7522 22.4699,11.1602 C21.8509,10.6952 21.3009,10.1462 20.8359,9.5282 L20.8359,9.5282 Z M28.0179,6.0442 C28.2649,5.7192 28.5149,5.3982 28.7569,5.0702 C28.8479,5.1202 28.9429,5.1642 29.0369,5.2082 C28.8839,5.5742 28.7289,5.9382 28.5629,6.2962 C28.3759,6.2212 28.1929,6.1392 28.0179,6.0442 L28.0179,6.0442 Z M28.1099,7.2212 C27.9249,7.5842 27.7319,7.9422 27.5339,8.2962 C27.2129,8.1692 26.9059,8.0192 26.6119,7.8472 C26.8739,7.5202 27.1379,7.1952 27.3949,6.8642 C27.6259,6.9972 27.8619,7.1182 28.1099,7.2212 L28.1099,7.2212 Z M13.3009,17.5882 C13.0589,17.6462 12.8169,17.7012 12.5759,17.7652 C12.5929,17.6972 12.6079,17.6282 12.6249,17.5592 L12.9839,17.1992 C13.0859,17.3322 13.1929,17.4612 13.3009,17.5882 L13.3009,17.5882 Z M14.2329,12.3402 C14.4309,12.8382 14.6719,13.3152 14.9479,13.7712 L13.0439,15.6862 C13.2059,14.8412 13.3349,13.9912 13.4329,13.1392 L14.2329,12.3402 Z M13.8779,11.2452 L13.5799,11.5422 C13.6109,11.0822 13.6359,10.6212 13.6489,10.1602 C13.7039,10.5292 13.7829,10.8892 13.8779,11.2452 L13.8779,11.2452 Z M-0.0001,29.2242 L2.7759,31.9992 L4.5119,30.2642 C5.5389,30.8302 6.6969,31.1352 7.9029,31.1352 C9.7829,31.1352 11.5499,30.4032 12.8799,29.0732 L14.3439,27.6092 C18.9239,23.0292 25.0119,20.5082 31.4869,20.5082 C31.7339,20.5082 31.9459,20.3312 31.9909,20.0882 C32.0369,19.8442 31.9009,19.6042 31.6699,19.5162 L29.3939,18.6492 C27.8479,18.0602 26.2529,17.6202 24.6329,17.3212 L26.5619,15.3912 C30.0679,11.8842 31.9999,7.2222 31.9999,2.2632 C31.9999,1.6582 31.7639,1.0892 31.3369,0.6622 C30.9089,0.2352 30.3409,0.0002 29.7359,0.0002 C24.7769,0.0002 20.1149,1.9312 16.6079,5.4382 L13.6479,8.3972 C13.5829,5.7082 13.2039,3.0202 12.4999,0.3802 C12.4339,0.1322 12.1929,-0.0258 11.9379,0.0042 C11.6819,0.0382 11.4919,0.2552 11.4919,0.5122 C11.4919,6.9882 8.9699,13.0762 4.3909,17.6542 L2.9259,19.1202 C1.5969,20.4492 0.8639,22.2172 0.8639,24.0972 C0.8639,25.3032 1.1689,26.4602 1.7359,27.4872 L-0.0001,29.2242 Z" id="Fill-1" fill="#BDAD90"></path>
        <path d="M3.3613,24.7221 C3.1703,25.3611 4.1533,25.6551 4.3433,25.0161 C4.4293,24.7291 4.5273,24.4241 4.6373,24.1041 C5.2933,22.3521 6.3043,20.7811 7.6383,19.4461 L7.7583,19.3261 C9.4943,17.5891 10.7533,15.4201 11.3993,13.0531 L11.9863,10.9011 C12.1573,10.2711 11.1683,10.0011 10.9963,10.6321 L10.4093,12.7831 C9.8103,14.9791 8.6433,16.9911 7.0333,18.6011 L6.9133,18.7211 C5.4753,20.1601 4.3853,21.8541 3.6723,23.7581 C3.5533,24.1061 3.4503,24.4231 3.3613,24.7221" id="Fill-4" fill="#BDAD90"></path>
    </g>
</svg>