<?xml version="1.0" encoding="UTF-8"?>
<svg width="32px" height="32px" viewBox="0 0 32 32" version="1.1" xmlns="http://www.w3.org/2000/svg" xmlns:xlink="http://www.w3.org/1999/xlink">
    <title>ICONS/INGREDIENTES/32/32_pollo</title>
    <g id="ICONS/INGREDIENTES/32/32_pollo" stroke="none" stroke-width="1" fill="none" fill-rule="evenodd">
        <path d="M28.1177143,17.864 C26.2502857,19.7314286 23.768,20.76 21.128,20.76 C20.8765714,20.76 20.6262857,20.7497143 20.376,20.7314286 C20.1862857,20.7177143 19.9965714,20.7097143 19.8068571,20.7097143 C18.1474286,20.7097143 16.5257143,21.272 15.2365714,22.2925714 L14.9085714,22.5531429 L9.44685714,17.0902857 L9.70742857,16.7622857 C10.8537143,15.3131429 11.4068571,13.4834286 11.2685714,11.608 C11.0537143,8.73371429 12.0982857,5.91657143 14.1348571,3.88 C15.9988571,2.016 18.4822857,0.988571429 21.1257143,0.988571429 C23.768,0.988571429 26.2502857,2.01485714 28.1142857,3.87657143 C29.9828571,5.74514286 31.0125724,8.22742857 31.0125724,10.8697143 C31.0137143,13.5108571 29.9851429,15.9942857 28.1177143,17.864 L28.1177143,17.864 Z M8.38971429,26.3428571 L8.63428571,26.6845714 C9.41142857,27.7771429 9.28571429,29.2594286 8.33714286,30.2091429 C7.81942857,30.7257143 7.13257143,31.0114286 6.39885714,31.0114286 C5.66514286,31.0114286 4.97828571,30.7257143 4.46057143,30.2091429 C4.05257143,29.8011429 3.78857143,29.2845714 3.696,28.7142857 L3.63885714,28.3634286 L3.28571429,28.3062857 C2.71657143,28.2137143 2.19885714,27.9485714 1.792,27.5394286 C1.27542857,27.0228571 0.989714286,26.3337143 0.989714286,25.6022857 C0.989714286,24.8708571 1.27542857,24.1817143 1.792,23.664 C2.31314286,23.144 2.99885714,22.8582857 3.73028571,22.8582857 C4.30171429,22.8582857 4.84914286,23.0342857 5.31771429,23.3668571 L5.65828571,23.6102857 L10.112,19.1554286 L12.8445714,21.888 L8.38971429,26.3428571 Z M28.8102857,3.176 C26.7622857,1.128 24.0342857,0 21.1257143,0 C18.2182857,0 15.4857143,1.12914286 13.4354286,3.18057143 C11.1954286,5.42171429 10.0457143,8.52 10.2822857,11.6822857 C10.4205714,13.56 9.75314286,15.3862857 8.45028571,16.6891429 L8.04685714,17.0902857 L9.41371429,18.456 L5.54514286,22.3257143 L5.248,22.192 C4.768,21.9771429 4.25714286,21.8674286 3.72914286,21.8674286 C2.73714286,21.8674286 1.8,22.2571429 1.09371429,22.9634286 C0.387428571,23.6697143 -6.03961325e-14,24.6068571 -6.03961325e-14,25.6022857 C-6.03961325e-14,26.5988571 0.387428571,27.5348571 1.09371429,28.24 C1.51085714,28.6571429 2.00228571,28.9611429 2.55885714,29.144 L2.784,29.2182857 L2.85714286,29.4445714 C3.04,29.9988571 3.344,30.4914286 3.76114286,30.9097143 C4.46514286,31.6125714 5.40228571,32 6.39885714,32 C7.39657143,32 8.33257143,31.6125714 9.03657143,30.9097143 C10.1417143,29.8034286 10.4445714,28.1725714 9.80685714,26.7531429 L9.67428571,26.4571429 L13.5451429,22.5874286 L14.9085714,23.952 L15.3108571,23.5508571 C16.504,22.3565714 18.1005714,21.6982857 19.808,21.6982857 C19.9702857,21.6982857 20.1348571,21.7051429 20.2994286,21.7177143 C20.576,21.7394286 20.8514286,21.7497143 21.1257143,21.7497143 L21.128,21.7497143 C24.032,21.7497143 26.7622857,20.6182857 28.8148571,18.5634286 C30.8708571,16.5085714 32.0022857,13.776 32,10.8697143 C32,7.96342857 30.8685714,5.23085714 28.8102857,3.176 L28.8102857,3.176 Z" id="Fill-1" fill="#BDAD90"></path>
        <path d="M20.2292571,19.4259429 C19.9321143,19.4259429 19.6818286,19.1962286 19.6601143,18.8956571 C19.6372571,18.5802286 19.8749714,18.3070857 20.1904,18.2842286 C24.9115429,17.9493714 27.5972571,16.0030857 28.4006857,12.3345143 C28.4681143,12.0270857 28.7755429,11.8328 29.0818286,11.8990857 C29.3904,11.9665143 29.5858286,12.2716571 29.5172571,12.5790857 C28.6029714,16.7505143 25.4921143,19.0533714 20.2704,19.4248 C20.2566857,19.4259429 20.2441143,19.4259429 20.2292571,19.4259429" id="Fill-4" fill="#BDAD90"></path>
        <path d="M18.9112,19.0269714 C18.9112,19.3412571 18.6563429,19.5961143 18.3432,19.5961143 C18.0289143,19.5961143 17.7740571,19.3412571 17.7740571,19.0269714 C17.7740571,18.7138286 18.0289143,18.4578286 18.3432,18.4578286 C18.6563429,18.4578286 18.9112,18.7138286 18.9112,19.0269714" id="Fill-6" fill="#BDAD90"></path>
    </g>
</svg>