<?xml version="1.0" encoding="UTF-8"?>
<svg width="32px" height="32px" viewBox="0 0 32 32" version="1.1" xmlns="http://www.w3.org/2000/svg" xmlns:xlink="http://www.w3.org/1999/xlink">
    <title>ICONS/ALERGENOS/32/32_huevos_circle_gray_borde</title>
    <g id="ICONS/ALERGENOS/32/32_huevos_circle_gray_borde" stroke="none" stroke-width="1" fill="none" fill-rule="evenodd">
        <path d="M6.02963684,3.4879 C12.9396368,-2.0191 23.0066368,-0.8811 28.5126368,6.0289 C34.0196368,12.9399 32.8816368,23.0059 25.9706368,28.5119 C19.0606368,34.0189 8.99463684,32.8819 3.48763684,25.9699 C-2.01936316,19.0599 -0.881363164,8.9939 6.02963684,3.4879" id="Fill-1" stroke="none" stroke-width="0.5"></path>
        <path d="M15.6446,11.1541 C15.6336,11.4021 15.5426,11.6501 15.3676,11.8671 C15.2806,11.9731 14.8186,12.4841 14.2856,13.2991 C14.0196,13.7051 13.7376,14.1831 13.4756,14.7091 C13.2136,15.2361 12.9696,15.8091 12.7796,16.3911 C12.5886,16.9741 12.4476,17.5681 12.3776,18.1291 C12.3076,18.6871 12.3056,19.2131 12.3576,19.6551 C12.4556,20.5461 12.7676,21.1011 12.6596,21.1771 C12.6106,21.2141 12.4626,21.1251 12.2686,20.8991 C12.0746,20.6751 11.8466,20.3051 11.6736,19.8191 C11.5006,19.3331 11.3906,18.7321 11.3696,18.0871 C11.3466,17.4411 11.4116,16.7531 11.5426,16.0761 C11.6736,15.3981 11.8706,14.7321 12.1006,14.1161 C12.3306,13.5011 12.5946,12.9351 12.8526,12.4521 C13.3686,11.4841 13.8696,10.8471 13.9726,10.7191 C14.1796,10.4661 14.4586,10.3091 14.7236,10.2701 C14.9896,10.2291 15.2386,10.3061 15.4106,10.4831 C15.5846,10.6661 15.6546,10.9101 15.6446,11.1541 M16.2316,8.1491 C12.7626,8.1491 9.9506,14.1121 9.9506,17.4461 C9.9506,20.7801 12.7626,23.4841 16.2316,23.4841 C19.7006,23.4841 22.5126,20.7801 22.5126,17.4461 C22.5126,14.1121 19.7006,8.1491 16.2316,8.1491" id="Fill-4" fill="#999999"></path>
    </g>
</svg>