<?xml version="1.0" encoding="UTF-8"?>
<svg width="32px" height="32px" viewBox="0 0 32 32" version="1.1" xmlns="http://www.w3.org/2000/svg" xmlns:xlink="http://www.w3.org/1999/xlink">
    <title>ICONS/ALERGENOS/32/32_mostaza_circle_gray_borde</title>
    <g id="ICONS/ALERGENOS/32/32_mostaza_circle_gray_borde" stroke="none" stroke-width="1" fill="none" fill-rule="evenodd">
        <path d="M6.02963684,3.4879 C12.9396368,-2.0191 23.0066368,-0.8811 28.5126368,6.0289 C34.0196368,12.9399 32.8816368,23.0059 25.9706368,28.5119 C19.0606368,34.0189 8.99463684,32.8819 3.48763684,25.9699 C-2.01936316,19.0599 -0.881363164,8.9939 6.02963684,3.4879" id="Fill-1" stroke="none" stroke-width="0.5"></path>
        <path d="M10.1267,21.8218 C9.8647,21.5588 7.8457,23.1528 7.3757,23.6228 C6.9057,24.0928 6.7377,24.6848 7.0007,24.9478 C7.2627,25.2108 7.8557,25.0428 8.3257,24.5728 C8.7957,24.1028 10.3897,22.0838 10.1267,21.8218" id="Fill-3" fill="#999999"></path>
        <path d="M21.9734,8.7524 C21.5224,9.1064 13.7784,14.7264 13.4944,14.3664 C13.2104,14.0044 20.4964,7.8004 20.9464,7.4444 C21.3974,7.0914 21.9924,7.0944 22.2754,7.4564 C22.5604,7.8164 22.4244,8.3984 21.9734,8.7524 L21.9734,8.7524 Z M26.0844,10.7814 C26.4944,10.3724 26.4914,9.7004 26.0754,9.2854 L22.6624,5.8724 C22.2464,5.4564 21.5764,5.4534 21.1664,5.8634 L12.4114,13.5084 C12.0004,13.9194 12.0054,14.5894 12.4214,15.0054 L16.9424,19.5254 C17.3594,19.9424 18.0284,19.9454 18.4394,19.5354 L26.0844,10.7814 Z" id="Fill-5" fill="#999999"></path>
        <path d="M15.5779,19.561 L12.3869,16.371 C12.1179,16.101 11.6839,16.099 11.4199,16.364 C11.1529,16.629 11.1559,17.064 11.4249,17.332 L12.1699,18.077 C12.0739,18.179 11.9829,18.309 11.9049,18.462 C11.6059,19.05 11.1189,20.014 10.8209,20.601 C10.5209,21.188 10.7599,21.426 11.3479,21.127 C11.9349,20.83 12.8969,20.341 13.4849,20.042 C13.6389,19.964 13.7679,19.873 13.8709,19.778 L14.6149,20.523 C14.8849,20.791 15.3189,20.795 15.5849,20.529 C15.8489,20.264 15.8469,19.83 15.5779,19.561" id="Fill-7" fill="#999999"></path>
    </g>
</svg>