<?xml version="1.0" encoding="UTF-8"?>
<svg width="32px" height="32px" viewBox="0 0 32 32" version="1.1" xmlns="http://www.w3.org/2000/svg" xmlns:xlink="http://www.w3.org/1999/xlink">
    <title>ICONS/ALERGENOS/32/32_pescados_circle_gray_borde</title>
    <g id="ICONS/ALERGENOS/32/32_pescados_circle_gray_borde" stroke="none" stroke-width="1" fill="none" fill-rule="evenodd">
        <path d="M6.02963684,3.4879 C12.9396368,-2.0191 23.0066368,-0.8811 28.5126368,6.0289 C34.0196368,12.9399 32.8816368,23.0059 25.9706368,28.5119 C19.0606368,34.0189 8.99463684,32.8819 3.48763684,25.9699 C-2.01936316,19.0599 -0.881363164,8.9939 6.02963684,3.4879" id="Fill-1" stroke="none" stroke-width="0.5"></path>
        <path d="M20.1161,10.5916 L19.4751,8.6686 C18.6231,8.7456 15.9961,9.1546 12.8501,11.2806 L13.2241,12.4026 C13.4111,12.3106 13.6001,12.2176 13.7901,12.1246 C15.7431,11.1626 17.7591,10.1716 20.1161,10.5916" id="Fill-4" fill="#999999"></path>
        <path d="M13.7445,17.1922 C11.9255,15.6752 9.8355,15.8462 9.0725,15.9752 L9.0725,17.5072 C10.0135,18.2682 11.0295,18.9322 12.1045,19.4872 C13.8545,20.3932 16.5445,21.4002 19.4235,21.0502 C20.8065,20.8802 22.1355,20.4142 23.3225,19.6842 C23.2365,19.5722 23.1555,19.4592 23.0785,19.3432 L20.5885,19.3432 C20.0925,19.3422 19.6445,19.0462 19.4515,18.5882 C19.0265,18.6552 18.5975,18.6872 18.1675,18.6872 C16.9265,18.6872 15.2105,18.4142 13.7445,17.1922" id="Fill-6" fill="#999999"></path>
        <path d="M5.9925,15.2889 C6.0405,15.3169 6.0825,15.3549 6.1155,15.3999 C6.2485,15.5839 6.2075,15.8419 6.0235,15.9749 C5.2745,16.5189 4.7555,17.4089 4.5975,18.3809 L8.2495,17.3849 L8.2495,14.2619 L4.5385,12.5749 C4.5655,13.7219 4.8875,14.6309 5.9925,15.2889" id="Fill-8" fill="#999999"></path>
        <path d="M20.1771,18.1102 C20.1771,18.3372 20.3611,18.5202 20.5881,18.5212 L22.6081,18.5212 C22.4201,18.1272 22.2761,17.7142 22.1811,17.2872 L20.5881,17.2872 C20.3611,17.2872 20.1771,17.4712 20.1771,17.6982 L20.1771,18.1102 Z" id="Fill-10" fill="#999999"></path>
        <path d="M11.704,20.2059 C11.031,19.8559 10.379,19.4669 9.752,19.0399 L9.246,19.4189 C9.873,20.1519 10.613,20.7809 11.437,21.2809 L12.127,20.4189 C11.981,20.3479 11.84,20.2769 11.704,20.2059" id="Fill-12" fill="#999999"></path>
        <path d="M24.701,16.0535 C24.701,15.8255 24.885,15.6425 25.112,15.6425 C25.339,15.6425 25.523,15.8255 25.523,16.0535 C25.523,16.2805 25.339,16.4645 25.112,16.4645 C24.885,16.4645 24.701,16.2805 24.701,16.0535 M22.928,16.8135 C23.037,17.4905 23.284,18.1365 23.651,18.7155 C23.763,18.8935 23.883,19.0655 24.012,19.2315 C25.251,18.3495 26.401,17.1655 27.462,15.6805 C26.49,14.7085 25.403,13.8585 24.226,13.1485 C23.2,13.9935 22.705,15.3725 22.928,16.8135" id="Fill-14" fill="#999999"></path>
        <path d="M18.8607,21.9266 C18.4547,22.3866 17.9177,22.6786 17.5227,22.8456 L17.8457,23.3316 C18.7687,22.8236 19.2397,22.3436 19.4757,22.0166 C19.5157,21.9606 19.5487,21.9086 19.5787,21.8596 C19.5577,21.8626 19.5377,21.8656 19.5167,21.8676 C19.2967,21.8946 19.0777,21.9136 18.8607,21.9266" id="Fill-16" fill="#999999"></path>
        <path d="M14.1532,12.8621 C12.5462,13.6541 10.8872,14.4731 9.0722,14.4331 L9.0722,15.1391 C10.0632,14.9901 12.2802,14.9011 14.2712,16.5601 C16.1192,18.0991 18.5092,17.9011 19.3542,17.7691 L19.3542,17.6981 C19.3552,17.0171 19.9072,16.4661 20.5882,16.4651 L22.0642,16.4651 C21.9712,15.0171 22.4862,13.6541 23.4722,12.7181 C22.5232,12.2071 21.5192,11.8021 20.4802,11.5141 C18.1702,10.8841 16.2192,11.8451 14.1532,12.8621" id="Fill-18" fill="#999999"></path>
    </g>
</svg>