<?xml version="1.0" encoding="utf-8"?>
<!-- Generator: Adobe Illustrator 24.0.3, SVG Export Plug-In . SVG Version: 6.00 Build 0)  -->
<svg version="1.1" id="Capa_1" xmlns="http://www.w3.org/2000/svg" xmlns:xlink="http://www.w3.org/1999/xlink" x="0px" y="0px"
	 width="18.508px" height="17.359px" viewBox="0 0 18.508 17.359" style="enable-background:new 0 0 18.508 17.359;"
	 xml:space="preserve">
<style type="text/css">
	.st0{fill:#BDAD91;}
</style>
<path class="st0" d="M18.508,5.511c0-1.472-0.573-2.856-1.614-3.897C15.853,0.573,14.469,0,12.997,0
	c-1.409,0-2.736,0.526-3.76,1.484C8.217,0.545,6.903,0.03,5.508,0.03c-1.472,0-2.856,0.573-3.897,1.614
	c-2.149,2.148-2.148,5.645,0,7.793l1.403,1.403c-0.14,0.207-0.216,0.451-0.216,0.706c0,0.337,0.131,0.655,0.37,0.893
	c0.238,0.239,0.555,0.37,0.893,0.37c0.098,0,0.194-0.012,0.288-0.034c-0.022,0.094-0.034,0.189-0.034,0.288
	c0,0.337,0.131,0.654,0.37,0.893c0.238,0.239,0.555,0.37,0.893,0.37c0.099,0,0.195-0.013,0.289-0.034
	c-0.096,0.411,0.015,0.861,0.335,1.181c0.239,0.238,0.556,0.37,0.893,0.37c0.098,0,0.195-0.013,0.288-0.035
	c-0.096,0.411,0.015,0.861,0.335,1.181c0.238,0.239,0.555,0.37,0.893,0.37c0.264,0,0.515-0.081,0.726-0.23
	c0.204,0.135,0.443,0.208,0.694,0.208c0.338,0,0.655-0.131,0.893-0.369c0.276-0.276,0.397-0.649,0.364-1.01
	c0.159,0.071,0.334,0.108,0.513,0.108c0.337,0,0.655-0.131,0.893-0.37c0.319-0.319,0.431-0.768,0.337-1.179
	c0.093,0.021,0.189,0.032,0.286,0.032c0.337,0,0.654-0.131,0.893-0.37c0.238-0.239,0.37-0.556,0.37-0.893
	c0-0.178-0.036-0.35-0.106-0.508c0.367,0.031,0.737-0.101,1.003-0.365c0.238-0.239,0.37-0.556,0.37-0.893
	c0-0.291-0.098-0.566-0.277-0.789l1.323-1.323C17.935,8.367,18.508,6.983,18.508,5.511z M4.523,12.009
	c-0.042,0.042-0.096,0.08-0.163,0.115c-0.097,0.051-0.198,0.077-0.299,0.077c-0.174,0-0.338-0.068-0.461-0.191
	c-0.124-0.124-0.192-0.288-0.192-0.462c0-0.101,0.026-0.202,0.077-0.3c0.036-0.068,0.072-0.119,0.115-0.162L4.99,9.695
	c0.124-0.124,0.288-0.191,0.462-0.191S5.79,9.571,5.914,9.695c0.123,0.124,0.191,0.288,0.191,0.462c0,0.175-0.067,0.339-0.19,0.462
	L4.523,12.009z M6.04,13.526c-0.042,0.042-0.096,0.08-0.163,0.115c-0.098,0.051-0.199,0.077-0.299,0.077
	c-0.175,0-0.339-0.068-0.461-0.191c-0.201-0.201-0.247-0.507-0.115-0.762c0.034-0.067,0.071-0.12,0.114-0.162l1.888-1.888
	c0.124-0.124,0.288-0.192,0.462-0.192c0.174,0,0.338,0.068,0.462,0.192c0.124,0.123,0.191,0.287,0.191,0.462
	c0,0.174-0.068,0.338-0.191,0.462L6.04,13.526z M7.557,15.041c-0.043,0.044-0.095,0.08-0.164,0.116
	c-0.097,0.051-0.197,0.077-0.299,0.077c-0.175,0-0.339-0.068-0.462-0.191c-0.2-0.2-0.246-0.506-0.115-0.762
	c0.035-0.068,0.072-0.12,0.115-0.163l1.675-1.674c0.191-0.191,0.355-0.259,0.53-0.259c0.175,0,0.339,0.068,0.462,0.191
	c0.123,0.124,0.191,0.288,0.191,0.462c0,0.175-0.067,0.339-0.19,0.462L7.557,15.041z M9.073,16.559
	c-0.043,0.042-0.097,0.081-0.164,0.116c-0.097,0.05-0.197,0.075-0.298,0.075c-0.175,0-0.339-0.068-0.462-0.191
	c-0.2-0.2-0.246-0.506-0.115-0.761c0.036-0.068,0.072-0.121,0.115-0.164l1.29-1.289c0.131-0.131,0.269-0.195,0.425-0.209
	c0.011,0,0.021,0,0.032,0c0.219,0,0.374,0.067,0.492,0.185c0.135,0.135,0.202,0.326,0.184,0.523c-0.01,0.109-0.05,0.267-0.184,0.401
	L9.073,16.559z M10.493,16.536c-0.123,0.123-0.288,0.191-0.462,0.191c-0.017,0-0.033-0.001-0.05-0.002l0.699-0.699
	C10.694,16.212,10.628,16.4,10.493,16.536z M12.264,15.261c-0.125,0.125-0.289,0.193-0.462,0.193c-0.175,0-0.338-0.068-0.461-0.191
	l-0.066-0.066c0.153-0.498,0.021-1.043-0.35-1.414c-0.215-0.216-0.489-0.353-0.785-0.397c0.172-0.413,0.137-0.888-0.088-1.271
	l2.213,2.218c0.123,0.123,0.191,0.288,0.191,0.464S12.387,15.138,12.264,15.261z M15.047,11.981
	c-0.124,0.124-0.288,0.192-0.462,0.192c-0.174,0-0.338-0.068-0.462-0.191l-3.054-3.054c-0.072-0.072-0.167-0.111-0.269-0.111
	s-0.197,0.039-0.268,0.111c-0.127,0.126-0.167,0.222-0.167,0.324c0,0.101,0.039,0.196,0.11,0.268l3.304,3.304
	c0.124,0.123,0.191,0.287,0.191,0.462s-0.068,0.339-0.191,0.462c-0.124,0.123-0.288,0.191-0.462,0.191
	c-0.174,0-0.338-0.068-0.462-0.191l-3.303-3.362c-0.077-0.085-0.154-0.172-0.27-0.172c-0.116,0-0.194,0.088-0.246,0.146L8.94,10.496
	c-0.129,0.125-0.129,0.377,0.02,0.526l0.599,0.601c-0.211-0.126-0.451-0.194-0.703-0.198c0.015-0.082,0.022-0.166,0.022-0.249
	c0-0.377-0.147-0.732-0.414-0.999C8.198,9.91,7.843,9.763,7.466,9.763c-0.219,0-0.431,0.05-0.624,0.145
	c-0.05-0.283-0.185-0.543-0.392-0.75C6.184,8.891,5.829,8.744,5.452,8.744S4.72,8.891,4.453,9.158l-1.13,1.129l-1.28-1.281
	C1.118,8.082,0.609,6.851,0.609,5.54c0-1.311,0.509-2.542,1.433-3.466c0.926-0.926,2.157-1.436,3.466-1.436
	c1.171,0,2.294,0.416,3.181,1.175L4.675,5.828C4.409,6.095,4.261,6.449,4.261,6.826C4.26,7.204,4.406,7.558,4.671,7.823L4.89,8.041
	c0.264,0.264,0.617,0.41,0.995,0.41c0.377,0,0.732-0.147,0.999-0.414l2.572-2.571l5.592,5.592c0.124,0.124,0.191,0.288,0.191,0.462
	C15.238,11.695,15.17,11.859,15.047,11.981z M15.273,10.166L9.742,4.642c-0.041-0.041-0.089-0.07-0.149-0.09L9.473,4.53
	c-0.101,0-0.196,0.04-0.268,0.111L6.347,7.5C6.223,7.623,6.059,7.691,5.885,7.691c-0.177,0-0.335-0.065-0.458-0.187L5.209,7.286
	C5.086,7.164,5.02,7,5.02,6.827s0.069-0.338,0.192-0.461l4.319-4.32c0.965-0.94,2.181-1.436,3.466-1.436
	c1.309,0,2.54,0.51,3.465,1.436c0.926,0.926,1.436,2.157,1.436,3.466s-0.51,2.54-1.436,3.465L15.273,10.166z"/>
</svg>
