<?xml version="1.0" encoding="utf-8"?>
<!-- Generator: Adobe Illustrator 24.0.3, SVG Export Plug-In . SVG Version: 6.00 Build 0)  -->
<svg version="1.1" id="Capa_1" xmlns="http://www.w3.org/2000/svg" xmlns:xlink="http://www.w3.org/1999/xlink" x="0px" y="0px"
	 width="17px" height="15.635px" viewBox="0 0 17 15.635" style="enable-background:new 0 0 17 15.635;" xml:space="preserve">
<style type="text/css">
	.st0{fill:#BEAE91;}
</style>
<g>
	<path class="st0" d="M16.368,12.418c0.169-0.475,0.213-1.39-0.087-2.208c-0.229-0.624-0.741-1.419-1.878-1.744
		c-0.299-0.982-1.371-2.173-3.32-1.872c-0.86-0.991-1.812-1.123-2.629-1.119C7.631,5.477,6.682,5.603,5.822,6.594
		c-1.948-0.303-3.021,0.89-3.32,1.872c-0.86,0.248-1.487,0.811-1.817,1.638c-0.345,0.862-0.289,1.814-0.144,2.293
		c-0.501,0.474-0.661,1.533-0.45,2.262c0.18,0.621,0.596,0.959,1.142,0.928c0.057-0.003,0.146-0.025,0.474-0.108
		c1.126-0.285,4.118-1.041,6.746-1.041c2.357,0,5.103,0.678,6.423,1.004c0.608,0.15,0.801,0.195,0.912,0.195
		c0.021,0,0.038-0.002,0.056-0.005c0.497-0.08,0.924-0.537,1.087-1.163C17.087,13.867,17.012,13.035,16.368,12.418z M16.272,14.296
		c-0.075,0.285-0.22,0.508-0.398,0.612l-0.085,0.05l-0.096-0.02c-0.146-0.031-0.431-0.101-0.639-0.153l-0.017-0.004
		c-1.345-0.332-4.146-1.023-6.585-1.023c-2.712,0-5.763,0.771-6.912,1.061L1.45,14.842c-0.099,0.025-0.186,0.047-0.235,0.059
		l-0.046,0.011l-0.046-0.006c-0.263-0.034-0.35-0.337-0.379-0.436c-0.087-0.298-0.086-0.691,0.003-1.05l0.108-0.439l0.32,0.319
		c0.11,0.11,0.204,0.214,0.236,0.25l0,0c0.041,0.046,0.1,0.073,0.161,0.073c0.027,0,0.052-0.005,0.077-0.014
		c0.108-0.043,0.163-0.163,0.123-0.272l-0.004-0.012c0,0-0.088-0.222-0.211-0.466l-0.111-0.22l0.006-0.004L1.36,12.489l-0.154-0.237
		l-0.01-0.029c-0.078-0.222-0.195-1.076,0.121-1.868c0.148-0.372,0.371-0.67,0.661-0.888l0.321-0.241l0.085,0.41
		c0.024,0.116,0.036,0.205,0.039,0.281c0.001,0.043,0,0.082-0.004,0.117l-0.001,0.025L2.403,10.15l-0.002,0.01
		c-0.016,0.068-0.03,0.119-0.042,0.151l-0.027,0.078c-0.037,0.108,0.005,0.228,0.102,0.285c0.036,0.021,0.077,0.032,0.119,0.032
		c0.083,0,0.161-0.045,0.203-0.117l0.039-0.066c0.033-0.054,0.069-0.125,0.11-0.216l0.003-0.007l0.017-0.046
		c0.011-0.027,0.026-0.064,0.037-0.107l0.003-0.009c0.017-0.056,0.03-0.116,0.041-0.179c0.018-0.109,0.027-0.236,0.026-0.388
		l0-0.058C3.03,9.418,3.03,9.331,3.034,9.253c0.002-0.052,0.007-0.109,0.017-0.172l0.002-0.013l0.036-0.142l0.034-0.153
		c0.09-0.397,0.61-1.447,1.924-1.538l0.329-0.023L5.315,7.537C5.301,7.609,5.284,7.673,5.263,7.725L5.261,7.731
		c-0.018,0.048-0.045,0.093-0.08,0.145L5.175,7.884L5.17,7.891C5.123,7.95,5.102,7.972,5.091,7.983L5.037,8.037
		C4.963,8.111,4.948,8.221,5.001,8.309c0.04,0.066,0.112,0.108,0.19,0.108c0.04,0,0.079-0.011,0.113-0.031l0.054-0.032
		c0.05-0.028,0.105-0.066,0.175-0.12l0.013-0.011C5.613,8.166,5.689,8.094,5.756,8c0.06-0.081,0.117-0.183,0.17-0.299
		c0.066-0.153,0.13-0.297,0.189-0.389l0.008-0.012L6.25,7.141c0.697-0.866,1.452-0.985,2.164-0.985H8.49
		c0.454,0,0.987,0.045,1.502,0.377l0.495,0.32L9.914,6.994C9.886,7.001,9.861,7.006,9.839,7.009
		C9.802,7.013,9.764,7.017,9.728,7.017L9.635,7.015c-0.089,0-0.171,0.06-0.199,0.15c-0.035,0.113,0.028,0.233,0.14,0.268
		l0.057,0.018c0.051,0.017,0.113,0.032,0.193,0.046c0.06,0.01,0.127,0.016,0.2,0.016c0.134,0,0.273-0.018,0.401-0.052
		c0.106-0.027,0.207-0.059,0.296-0.086l0.018-0.006c0.06-0.019,0.115-0.036,0.161-0.048l0.04-0.01l0.112-0.022
		c0.216-0.041,0.425-0.062,0.621-0.062c0.922,0,1.456,0.445,1.741,0.818l0.22,0.287l-0.344,0.111c-0.028,0.009-0.1,0.031-0.1,0.031
		c-0.038,0.011-0.08,0.023-0.12,0.031l-0.016,0.004c-0.011,0.003-0.045,0.008-0.08,0.013l-0.031,0.004l-0.009,0
		c-0.013,0.001-0.026,0.001-0.038,0.001c-0.063,0-0.107-0.009-0.133-0.016L12.731,8.5c0,0-0.033-0.014-0.041-0.017l-0.02-0.008
		l-0.107-0.064c-0.04-0.024-0.087-0.036-0.134-0.036c-0.077,0-0.15,0.033-0.2,0.092c-0.095,0.11-0.083,0.278,0.028,0.373
		l0.078,0.067c0.022,0.019,0.053,0.045,0.096,0.069l0.027,0.017c0.026,0.017,0.059,0.038,0.101,0.055l0.011,0.005
		c0.107,0.05,0.235,0.083,0.37,0.096l0.027,0.001c0.036,0.002,0.077,0.004,0.116,0.004c0.021,0,0.042-0.001,0.063-0.002
		c0.077-0.003,0.144-0.011,0.198-0.017c0.07-0.01,0.137-0.019,0.2-0.029c0.147-0.023,0.271-0.041,0.358-0.041l0.057,0.001
		l0.068,0.008l0.035,0.008l0.029,0.007c0.764,0.181,1.285,0.637,1.549,1.357c0.165,0.448,0.188,0.877,0.177,1.159l-0.013,0.363
		l-0.337-0.135c-0.033-0.013-0.065-0.027-0.097-0.041c-0.178-0.075-0.349-0.18-0.452-0.278c-0.054-0.052-0.082-0.085-0.097-0.107
		l-0.054-0.078c-0.043-0.062-0.114-0.1-0.189-0.1c-0.031,0-0.06,0.006-0.087,0.017c-0.058,0.024-0.101,0.067-0.124,0.124
		c-0.023,0.057-0.023,0.118,0.001,0.175l0.031,0.074c0.019,0.047,0.054,0.121,0.129,0.229c0.118,0.171,0.31,0.356,0.526,0.505
		c0.16,0.114,0.328,0.213,0.462,0.292l0.094,0.056l0.102,0.063l0.056,0.037l0.017,0.014C16.32,13.235,16.387,13.856,16.272,14.296z"
		/>
	<path class="st0" d="M7.766,4.669c-0.262-0.33-0.392-0.68-0.386-1.041c0.007-0.398,0.176-0.71,0.326-0.985
		C7.768,2.528,7.827,2.42,7.873,2.308c0.091-0.217-0.001-0.567-0.068-0.823C7.712,1.128,7.607,0.723,7.705,0.271
		c0.11-0.384,0.595-0.349,0.62,0.032c0.027,0.244,0.078,0.605,0.211,0.86c0.227,0.437,0.477,0.738,0.362,1.227
		c-0.071,0.304-0.24,0.545-0.401,0.755C8.392,3.284,8.292,3.415,8.243,3.543c-0.09,0.234-0.07,0.506,0.059,0.807
		C8.42,4.659,8.032,4.918,7.766,4.669z"/>
	<path class="st0" d="M5.987,4.577C5.812,4.358,5.725,4.126,5.729,3.886c0.005-0.264,0.118-0.471,0.217-0.654
		c0.042-0.077,0.081-0.148,0.112-0.222c0.06-0.144,0-0.377-0.045-0.547C5.951,2.226,5.881,1.957,5.946,1.656
		C6.019,1.402,6.343,1.425,6.36,1.678C6.378,1.839,6.412,2.08,6.501,2.249c0.152,0.29,0.318,0.49,0.242,0.815
		C6.695,3.266,6.582,3.426,6.475,3.565c-0.07,0.092-0.137,0.179-0.17,0.264c-0.06,0.156-0.047,0.336,0.039,0.536
		C6.424,4.57,6.165,4.742,5.987,4.577z"/>
	<path class="st0" d="M9.862,4.577C9.686,4.358,9.6,4.126,9.604,3.886c0.005-0.264,0.118-0.471,0.217-0.654
		c0.042-0.077,0.081-0.148,0.112-0.222c0.06-0.144,0-0.377-0.045-0.547C9.826,2.226,9.755,1.957,9.82,1.656
		c0.073-0.255,0.397-0.232,0.414,0.021c0.018,0.162,0.052,0.402,0.141,0.571c0.152,0.29,0.318,0.49,0.242,0.815
		c-0.048,0.202-0.161,0.362-0.268,0.502c-0.07,0.092-0.137,0.179-0.17,0.264c-0.06,0.156-0.047,0.336,0.039,0.536
		C10.298,4.57,10.039,4.742,9.862,4.577z"/>
</g>
</svg>
