<?xml version="1.0" encoding="utf-8"?>
<!-- Generator: Adobe Illustrator 24.0.3, SVG Export Plug-In . SVG Version: 6.00 Build 0)  -->
<svg version="1.1" id="Capa_1" xmlns="http://www.w3.org/2000/svg" xmlns:xlink="http://www.w3.org/1999/xlink" x="0px" y="0px"
	 width="15.474px" height="17.586px" viewBox="0 0 15.474 17.586" style="enable-background:new 0 0 15.474 17.586;"
	 xml:space="preserve">
<style type="text/css">
	.st0{fill:#BDAD91;}
</style>
<path class="st0" d="M15.418,14.729l-2.886-4.388c0.147-0.088,0.295-0.206,0.412-0.353c0.265-0.353,0.265-0.825,0.295-1.237
	c0-0.265,0-0.53,0.088-0.736c0.059-0.206,0.206-0.383,0.353-0.618c0.236-0.353,0.53-0.736,0.53-1.208s-0.295-0.854-0.53-1.208
	c-0.147-0.206-0.295-0.412-0.353-0.618c-0.059-0.206-0.059-0.471-0.088-0.736c0-0.442-0.029-0.884-0.295-1.237
	c-0.265-0.353-0.707-0.501-1.119-0.648c-0.265-0.088-0.501-0.177-0.677-0.295c-0.177-0.118-0.324-0.324-0.471-0.53
	c-0.265-0.324-0.53-0.707-0.972-0.854c-0.412-0.147-0.854,0-1.266,0.118C8.173,0.268,7.937,0.327,7.702,0.327S7.23,0.238,6.965,0.18
	C6.553,0.062,6.111-0.085,5.699,0.062c-0.442,0.147-0.736,0.53-0.972,0.854C4.58,1.122,4.403,1.328,4.256,1.446
	C4.079,1.564,3.843,1.652,3.578,1.741C3.166,1.888,2.724,2.035,2.459,2.388C2.194,2.742,2.194,3.213,2.165,3.625
	c0,0.265,0,0.53-0.088,0.736C2.017,4.568,1.87,4.745,1.723,4.98C1.546,5.334,1.252,5.717,1.252,6.188s0.265,0.854,0.53,1.208
	c0.147,0.206,0.295,0.412,0.353,0.618S2.194,8.485,2.224,8.75c0,0.442,0.029,0.884,0.295,1.237c0.118,0.147,0.265,0.265,0.412,0.353
	l-2.886,4.388c-0.059,0.088-0.059,0.206,0,0.295c0.059,0.088,0.147,0.147,0.265,0.147l2.503-0.088l0.942,2.327
	c0.029,0.088,0.147,0.177,0.236,0.177H4.02c0.088,0,0.177-0.059,0.236-0.147l3.475-5.301l3.475,5.301
	c0.059,0.088,0.147,0.147,0.236,0.147h0.029c0.118,0,0.206-0.088,0.236-0.177l0.942-2.327l2.503,0.088
	c0.118,0,0.206-0.059,0.265-0.147C15.506,14.935,15.477,14.817,15.418,14.729z M4.079,16.702l-0.795-2.003
	c-0.059-0.118-0.147-0.177-0.265-0.177l0,0l-2.15,0.059l2.621-3.976c0.059,0.029,0.088,0.029,0.147,0.059
	c0.265,0.088,0.501,0.177,0.677,0.295s0.324,0.324,0.471,0.53c0.265,0.324,0.53,0.707,0.972,0.854c0.412,0.147,0.854,0,1.266-0.118
	h0.029L4.079,16.702z M7.731,11.489c-0.324,0-0.618,0.088-0.913,0.177c-0.353,0.088-0.677,0.206-0.913,0.118
	c-0.265-0.088-0.471-0.353-0.677-0.648c-0.177-0.236-0.353-0.471-0.618-0.648c-0.236-0.177-0.53-0.265-0.825-0.383
	C3.431,9.987,3.107,9.869,2.96,9.663S2.783,9.104,2.783,8.75c0-0.295,0-0.618-0.118-0.913C2.577,7.572,2.4,7.307,2.224,7.071
	C2.017,6.777,1.811,6.482,1.811,6.188s0.206-0.56,0.412-0.884C2.4,5.069,2.577,4.804,2.665,4.538
	c0.088-0.295,0.088-0.589,0.118-0.913c0-0.353,0.029-0.707,0.177-0.913c0.147-0.206,0.471-0.324,0.825-0.442
	c0.295-0.088,0.589-0.206,0.825-0.383C4.845,1.711,5.022,1.475,5.228,1.24C5.434,0.945,5.67,0.68,5.905,0.592
	c0.236-0.088,0.56,0.029,0.913,0.118c0.295,0.088,0.589,0.177,0.913,0.177S8.35,0.798,8.644,0.71
	c0.353-0.088,0.677-0.206,0.913-0.118c0.265,0.088,0.471,0.353,0.677,0.648c0.177,0.236,0.353,0.471,0.618,0.648
	c0.236,0.177,0.53,0.265,0.825,0.383c0.353,0.118,0.677,0.236,0.825,0.442c0.147,0.206,0.177,0.56,0.177,0.913
	c0,0.295,0,0.618,0.118,0.913l0,0c0.088,0.265,0.265,0.53,0.442,0.766c0.206,0.295,0.412,0.589,0.412,0.884s-0.206,0.56-0.412,0.884
	c-0.177,0.236-0.353,0.501-0.442,0.766c-0.088,0.295-0.088,0.589-0.118,0.913c0,0.353-0.029,0.707-0.177,0.913
	c-0.147,0.206-0.471,0.324-0.825,0.442c-0.295,0.088-0.589,0.206-0.825,0.383c-0.236,0.177-0.412,0.412-0.618,0.648
	c-0.236,0.295-0.442,0.56-0.677,0.648s-0.56-0.029-0.913-0.118C8.35,11.577,8.055,11.489,7.731,11.489z M12.473,14.523
	c-0.118,0-0.236,0.059-0.295,0.177l-0.795,2.003l-2.945-4.506h0.029c0.295,0.088,0.589,0.177,0.884,0.177
	c0.118,0,0.265-0.029,0.383-0.059c0.442-0.147,0.736-0.53,0.972-0.854c0.147-0.206,0.324-0.412,0.471-0.53
	c0.177-0.118,0.412-0.206,0.677-0.295c0.059-0.029,0.088-0.029,0.147-0.059l2.621,3.976L12.473,14.523z M12.296,6.188
	c0-2.503-2.032-4.565-4.565-4.565c-2.503,0-4.565,2.032-4.565,4.565s2.062,4.565,4.565,4.565S12.296,8.691,12.296,6.188z
	 M7.731,10.164c-2.179,0-3.976-1.797-3.976-3.976s1.797-3.976,3.976-3.976s3.976,1.797,3.976,3.976S9.911,10.164,7.731,10.164z
	 M10.824,5.216c-0.029-0.118-0.118-0.177-0.236-0.206L8.791,4.745l-0.795-1.62c-0.088-0.206-0.442-0.206-0.53,0l-0.795,1.62
	L4.874,5.01C4.756,5.039,4.668,5.098,4.639,5.216c-0.029,0.118,0,0.236,0.088,0.295l1.296,1.266L5.728,8.573
	C5.699,8.691,5.758,8.809,5.846,8.868C5.935,8.927,6.052,8.956,6.17,8.897l1.59-0.854l1.59,0.854
	C9.38,8.927,9.439,8.927,9.498,8.927c0.059,0,0.118-0.029,0.177-0.059c0.088-0.059,0.147-0.177,0.118-0.295L9.498,6.777l1.296-1.266
	C10.824,5.451,10.853,5.334,10.824,5.216z M8.939,6.482C8.88,6.541,8.85,6.659,8.85,6.747l0.236,1.355L7.878,7.454
	C7.849,7.425,7.79,7.425,7.731,7.425s-0.088,0-0.147,0.029L6.376,8.102l0.236-1.355c0.029-0.088-0.029-0.206-0.088-0.265L5.552,5.54
	l1.355-0.206c0.088,0,0.177-0.088,0.236-0.147l0.618-1.237l0.618,1.237c0.029,0.088,0.118,0.147,0.236,0.147L9.969,5.54L8.939,6.482
	z"/>
</svg>
