<?xml version="1.0" encoding="utf-8"?>
<!-- Generator: Adobe Illustrator 24.0.3, SVG Export Plug-In . SVG Version: 6.00 Build 0)  -->
<svg version="1.1" id="Capa_1" xmlns="http://www.w3.org/2000/svg" xmlns:xlink="http://www.w3.org/1999/xlink" x="0px" y="0px"
	 width="15.255px" height="15.435px" viewBox="0 0 15.255 15.435" style="enable-background:new 0 0 15.255 15.435;"
	 xml:space="preserve">
<style type="text/css">
	.st0{fill:#BDAD91;}
</style>
<path class="st0" d="M14.625,12.824c0.759-1.585,0.499-3.47-0.662-4.79c0.62-3.766-1.93-7.321-5.696-7.941
	c-3.766-0.62-7.321,1.93-7.941,5.696C0.267,6.144,0.237,6.503,0.234,6.862c0,1.164,0.298,2.309,0.866,3.326l-1.071,3.161
	c-0.065,0.193-0.016,0.406,0.126,0.552c0.143,0.146,0.356,0.199,0.55,0.137l3.316-1.053c1.045,0.522,2.204,0.775,3.372,0.736
	c1.301,1.581,3.533,2.029,5.344,1.073l1.803,0.613c0.283,0.096,0.59-0.056,0.686-0.339c0.037-0.109,0.038-0.227,0.003-0.337
	L14.625,12.824z M6.708,12.879c-0.882-0.062-1.723-0.31-2.499-0.733c-0.043-0.023-0.092-0.036-0.141-0.036l-3.067,0.96l0.966-2.848
	c0.026-0.082,0.017-0.171-0.028-0.245C1.368,9.039,1.066,7.962,1.066,6.862c0.02-3.328,2.74-6.034,6.066-6.034
	c3.362,0,6.083,2.706,6.102,6.032c0,0.121,0,0.241-0.012,0.361l-0.038,0.399l-0.342-0.21c-0.637-0.392-1.369-0.6-2.118-0.6
	C8.45,6.828,6.616,8.69,6.632,10.961c0.005,0.544,0.113,1.072,0.324,1.571l0.158,0.375L6.708,12.879z M12.935,14.057
	c-0.039-0.004-0.071-0.006-0.099-0.006c-0.073,0-0.11,0.013-0.143,0.033c-0.544,0.33-1.167,0.504-1.802,0.504l-0.053-0.25v0.25
	c-1.925,0-3.511-1.567-3.533-3.493C7.284,9.146,8.851,7.543,10.799,7.52c1.925,0,3.484,1.5,3.571,3.37l0.004,0.001l0.009,0.167
	c0,0.595-0.15,1.186-0.436,1.708c-0.04,0.072-0.049,0.156-0.023,0.233l0.5,1.575L12.935,14.057z"/>
</svg>
