<?xml version="1.0" encoding="UTF-8"?>
<svg width="32px" height="32px" viewBox="0 0 32 32" version="1.1" xmlns="http://www.w3.org/2000/svg" xmlns:xlink="http://www.w3.org/1999/xlink">
    <title>ICONS/ALERGENOS/32/32_gluten_circle_gray_color_borde</title>
    <g id="ICONS/ALERGENOS/32/32_gluten_circle_gray_color_borde" stroke="none" stroke-width="1" fill="none" fill-rule="evenodd">
        <path d="M6.02963684,3.4879 C12.9396368,-2.0191 23.0066368,-0.8811 28.5126368,6.0289 C34.0196368,12.9399 32.8816368,23.0059 25.9706368,28.5119 C19.0606368,34.0189 8.99463684,32.8819 3.48763684,25.9699 C-2.01936316,19.0599 -0.881363164,8.9939 6.02963684,3.4879" id="Fill-1" stroke="none" stroke-width="0.5"></path>
        <path d="M15.2237,28.566 C15.2237,28.913 15.5197,29.193 15.8857,29.193 C16.2497,29.193 16.5467,28.913 16.5467,28.566 L16.5467,25.885 C16.5467,25.539 16.2497,25.257 15.8857,25.257 C15.5197,25.257 15.2237,25.539 15.2237,25.885 L15.2237,28.566 Z" id="Fill-4" fill="#999999"></path>
        <path d="M15.8863,2.8072 C15.8863,2.8072 11.7653,5.6882 15.8863,10.7522 C20.0053,5.6882 15.8863,2.8072 15.8863,2.8072" id="Fill-6" fill="#999999"></path>
        <path d="M10.4698,14.2164 C10.4698,14.2164 9.7088,19.0144 16.3998,19.8324 C15.5378,13.4974 10.4698,14.2164 10.4698,14.2164" id="Fill-8" fill="#999999"></path>
        <path d="M16.3994,16.6793 C16.8064,17.3993 17.1334,18.3003 17.3254,19.4283 C21.9014,18.0133 21.2994,14.2163 21.2994,14.2163 C21.2994,14.2163 18.1574,13.7703 16.3994,16.6793" id="Fill-10" fill="#999999"></path>
        <path d="M16.3994,11.5806 C16.8064,12.3006 17.1334,13.2016 17.3254,14.3296 C21.9014,12.9146 21.2994,9.1176 21.2994,9.1176 C21.2994,9.1176 18.1574,8.6716 16.3994,11.5806" id="Fill-12" fill="#999999"></path>
        <path d="M16.3994,21.3922 C16.8064,22.1112 17.1334,23.0112 17.3254,24.1382 C21.9014,22.7242 21.2994,18.9262 21.2994,18.9262 C21.2994,18.9262 19.1664,18.6222 17.4324,20.1462 L17.4384,20.2062 L17.3724,20.2002 C17.0204,20.5142 16.6914,20.9092 16.3994,21.3922" id="Fill-14" fill="#999999"></path>
        <path d="M10.4698,9.3678 C10.4698,9.3678 9.7088,14.1648 16.3998,14.9838 C15.5378,8.6458 10.4698,9.3678 10.4698,9.3678" id="Fill-16" fill="#999999"></path>
        <path d="M10.4698,18.9254 C10.4698,18.9254 9.7088,23.7244 16.3988,24.5454 C15.5378,18.2064 10.4698,18.9254 10.4698,18.9254" id="Fill-18" fill="#999999"></path>
    </g>
</svg>