<?xml version="1.0" encoding="UTF-8"?>
<svg width="32px" height="32px" viewBox="0 0 32 32" version="1.1" xmlns="http://www.w3.org/2000/svg" xmlns:xlink="http://www.w3.org/1999/xlink">
    <title>ICONS/ALERGENOS/32/32_sesamo_circle_gray_borde</title>
    <g id="ICONS/ALERGENOS/32/32_sesamo_circle_gray_borde" stroke="none" stroke-width="1" fill="none" fill-rule="evenodd">
        <path d="M6.02963684,3.4879 C12.9396368,-2.0191 23.0066368,-0.8811 28.5126368,6.0289 C34.0196368,12.9399 32.8816368,23.0059 25.9706368,28.5119 C19.0606368,34.0189 8.99463684,32.8819 3.48763684,25.9699 C-2.01936316,19.0599 -0.881363164,8.9939 6.02963684,3.4879" id="Fill-1" stroke="none" stroke-width="0.5"></path>
        <path d="M19.3918,8.6647 C19.7998,8.0277 19.8538,7.4287 19.5318,7.1007 C19.5198,7.0877 19.5068,7.0757 19.4948,7.0647 C19.1628,6.7707 18.6048,6.8327 17.9888,7.2347 C17.5778,7.5037 17.1518,7.5907 16.6598,7.6907 C15.7648,7.8737 14.6528,8.1007 13.2328,9.5317 C12.3918,10.3817 11.7848,11.3747 11.5238,12.3307 C11.2448,13.3507 11.3878,14.2137 11.9248,14.7617 C12.4628,15.3097 13.3148,15.4577 14.3218,15.1807 C15.2658,14.9207 16.2488,14.3107 17.0898,13.4617 C18.4998,12.0387 18.7398,10.9097 18.9318,10.0017 C19.0378,9.5047 19.1278,9.0747 19.3918,8.6647" id="Fill-4" fill="#999999"></path>
        <path d="M15.0158,18.4665 C15.4248,17.8295 15.4788,17.2305 15.1568,16.9025 C15.1438,16.8895 15.1318,16.8775 15.1198,16.8665 C14.7868,16.5725 14.2288,16.6345 13.6128,17.0365 C13.2018,17.3055 12.7768,17.3925 12.2838,17.4925 C11.3898,17.6755 10.2768,17.9025 8.8578,19.3335 L8.8568,19.3345 C8.0158,20.1835 7.4088,21.1765 7.1478,22.1325 C6.8698,23.1525 7.0118,24.0155 7.5498,24.5635 C8.0868,25.1115 8.9388,25.2595 9.9458,24.9825 C10.8898,24.7225 11.8728,24.1125 12.7138,23.2635 C14.1238,21.8405 14.3638,20.7115 14.5558,19.8035 C14.6618,19.3065 14.7518,18.8765 15.0158,18.4665" id="Fill-6" fill="#999999"></path>
        <path d="M24.6427,16.0163 C25.0507,15.3793 25.1047,14.7803 24.7827,14.4523 C24.7707,14.4393 24.7577,14.4273 24.7457,14.4163 C24.4137,14.1213 23.8557,14.1843 23.2397,14.5863 C22.8287,14.8543 22.4027,14.9413 21.9107,15.0413 C21.0157,15.2243 19.9037,15.4523 18.4837,16.8833 C17.6427,17.7323 17.0357,18.7263 16.7747,19.6823 C16.4957,20.7023 16.6387,21.5653 17.1757,22.1133 C17.7137,22.6603 18.5657,22.8093 19.5727,22.5323 C20.5167,22.2723 21.4997,21.6623 22.3407,20.8123 C23.7507,19.3903 23.9907,18.2603 24.1827,17.3533 C24.2887,16.8563 24.3787,16.4263 24.6427,16.0163" id="Fill-8" fill="#999999"></path>
    </g>
</svg>