<?xml version="1.0" encoding="UTF-8"?>
<svg width="32px" height="32px" viewBox="0 0 32 32" version="1.1" xmlns="http://www.w3.org/2000/svg" xmlns:xlink="http://www.w3.org/1999/xlink">
    <title>ICONS/ALERGENOS/32/32_apio_circle_gray_borde</title>
    <g id="ICONS/ALERGENOS/32/32_apio_circle_gray_borde" stroke="none" stroke-width="1" fill="#BDAD90" fill-rule="evenodd">
        <path d="M6.02963684,3.4879 C12.9396368,-2.0191 23.0066368,-0.8811 28.5126368,6.0289 C34.0196368,12.9399 32.8816368,23.0059 25.9706368,28.5119 C19.0606368,34.0189 8.99463684,32.8819 3.48763684,25.9699 C-2.01936316,19.0599 -0.881363164,8.9939 6.02963684,3.4879" id="Fill-1" stroke="none" stroke-width="0.5"></path>
        <path d="M19.3337,13.4586 C19.2477,13.4706 19.1637,13.4966 19.0817,13.5406 C18.9847,13.5946 16.8037,14.8416 16.5167,18.1306 L16.5167,13.9946 C17.2157,13.7466 17.7137,13.0816 17.7137,12.2976 C18.3607,12.2976 18.9297,11.9556 19.2467,11.4456 C19.2997,11.6546 19.4057,11.8546 19.5677,12.0196 C19.1787,12.4076 19.1047,12.9886 19.3337,13.4586 M15.1117,27.1566 C14.8267,27.1566 14.5967,26.8176 14.5967,26.4006 C14.5967,25.9826 14.8267,19.0126 15.1117,19.0126 C15.3957,19.0126 15.6297,25.9826 15.6297,26.4006 C15.6297,26.8176 15.3957,27.1566 15.1117,27.1566 M12.4847,13.5406 C12.4027,13.4966 12.3197,13.4706 12.2327,13.4586 C12.4627,12.9886 12.3887,12.4066 11.9967,12.0196 C12.1617,11.8546 12.2667,11.6546 12.3197,11.4426 C12.6397,11.9556 13.2047,12.2976 13.8537,12.2976 C13.8537,13.0816 14.3527,13.7466 15.0517,13.9946 L15.0517,18.1306 C14.7647,14.8416 12.5827,13.5946 12.4847,13.5406 M25.2317,11.4076 C25.2997,11.3636 25.3627,11.3146 25.4217,11.2556 C25.9127,10.7636 25.9127,9.9646 25.4217,9.4736 C25.1367,9.1886 24.7487,9.0736 24.3757,9.1206 C24.4227,8.7466 24.3067,8.3586 24.0217,8.0736 C23.5307,7.5826 22.7327,7.5826 22.2407,8.0736 C22.1817,8.1336 22.1317,8.1956 22.0887,8.2616 C22.0807,8.2566 22.0767,8.2486 22.0707,8.2436 C21.7247,7.8966 21.2247,7.7986 20.7887,7.9426 C20.7957,7.8776 20.8057,7.8136 20.8057,7.7486 C20.8057,6.7526 19.9987,5.9466 19.0027,5.9466 C18.9907,5.9466 18.9807,5.9496 18.9677,5.9496 C18.9897,5.8366 19.0027,5.7216 19.0027,5.6026 C19.0027,4.6056 18.1957,3.8006 17.1997,3.8006 C16.6217,3.8006 16.1127,4.0776 15.7827,4.5006 C15.4527,4.0776 14.9447,3.8006 14.3667,3.8006 C13.3717,3.8006 12.5647,4.6056 12.5647,5.6026 C12.5647,5.7216 12.5777,5.8366 12.6007,5.9496 C12.5867,5.9496 12.5747,5.9466 12.5647,5.9466 C11.5677,5.9466 10.7627,6.7526 10.7627,7.7486 C10.7627,7.8136 10.7707,7.8776 10.7787,7.9426 C10.3427,7.7986 9.8427,7.8966 9.4947,8.2436 C9.4897,8.2486 9.4857,8.2566 9.4807,8.2616 C9.4347,8.1956 9.3847,8.1336 9.3247,8.0736 C8.8337,7.5826 8.0377,7.5826 7.5457,8.0736 C7.2597,8.3586 7.1457,8.7466 7.1897,9.1206 C6.8197,9.0736 6.4307,9.1886 6.1457,9.4736 C5.6547,9.9646 5.6517,10.7636 6.1457,11.2556 C6.2037,11.3146 6.2687,11.3636 6.3347,11.4076 C6.3297,11.4146 6.3197,11.4176 6.3137,11.4236 C5.8217,11.9166 5.8217,12.7146 6.3137,13.2056 C6.7677,13.6586 7.4777,13.6886 7.9717,13.3076 C8.0227,13.5336 8.1327,13.7506 8.3077,13.9266 C8.7987,14.4186 9.5977,14.4186 10.0897,13.9266 C10.4447,14.2806 10.9557,14.3756 11.3997,14.2186 C11.4107,14.4636 11.5447,14.6966 11.7747,14.8236 C11.7937,14.8336 13.6157,15.8756 13.6157,18.8546 L13.6157,26.7096 C13.6157,27.1136 13.9657,28.1136 15.7827,28.1136 C17.4477,28.1136 17.9507,27.1136 17.9507,26.7096 L17.9507,18.8546 C17.9507,15.9306 19.7107,14.8706 19.7977,14.8196 C20.0247,14.6926 20.1557,14.4626 20.1677,14.2186 C20.6107,14.3756 21.1237,14.2806 21.4777,13.9266 C21.9707,14.4186 22.7667,14.4186 23.2587,13.9266 C23.4367,13.7506 23.5447,13.5336 23.5947,13.3076 C24.0897,13.6886 24.8007,13.6586 25.2507,13.2056 C25.7427,12.7146 25.7447,11.9166 25.2527,11.4236 C25.2477,11.4176 25.2397,11.4146 25.2317,11.4076" id="Fill-4" fill="#FEFEFE"></path>
    </g>
</svg>