<?xml version="1.0" encoding="UTF-8"?>
<svg width="32px" height="32px" viewBox="0 0 32 32" version="1.1" xmlns="http://www.w3.org/2000/svg" xmlns:xlink="http://www.w3.org/1999/xlink">
    <title>ICONS/ALERGENOS/32/32_sulfitos_circle_gray_borde</title>
    <g id="ICONS/ALERGENOS/32/32_sulfitos_circle_gray_borde" stroke="none" stroke-width="1" fill="none" fill-rule="evenodd">
        <path d="M6.02963684,3.4879 C12.9396368,-2.0191 23.0066368,-0.8811 28.5126368,6.0289 C34.0196368,12.9399 32.8816368,23.0059 25.9706368,28.5119 C19.0606368,34.0189 8.99463684,32.8819 3.48763684,25.9699 C-2.01936316,19.0599 -0.881363164,8.9939 6.02963684,3.4879" id="Fill-1" stroke="none" stroke-width="0.5"></path>
        <path d="M7.5541,13.4142 C7.5541,13.8832 7.1741,14.2632 6.7061,14.2632 C6.2381,14.2632 5.8581,13.8832 5.8581,13.4142 C5.8581,12.9462 6.2381,12.5662 6.7061,12.5662 C7.1741,12.5662 7.5541,12.9462 7.5541,13.4142" id="Fill-4" fill="#999999"></path>
        <path d="M7.5521,18.6036 C7.5521,19.0996 7.1501,19.5016 6.6531,19.5016 C6.1561,19.5016 5.7541,19.0996 5.7541,18.6036 C5.7541,18.1066 6.1561,17.7046 6.6531,17.7046 C7.1501,17.7046 7.5521,18.1066 7.5521,18.6036" id="Fill-6" fill="#999999"></path>
        <path d="M16.8685,18.8566 C16.8685,19.3176 16.4945,19.6916 16.0335,19.6916 C15.5715,19.6916 15.1975,19.3176 15.1975,18.8566 C15.1975,18.3946 15.5715,18.0206 16.0335,18.0206 C16.4945,18.0206 16.8685,18.3946 16.8685,18.8566" id="Fill-8" fill="#999999"></path>
        <path d="M26.2054,18.7159 C26.2054,19.1769 25.8314,19.5509 25.3704,19.5509 C24.9084,19.5509 24.5344,19.1769 24.5344,18.7159 C24.5344,18.2539 24.9084,17.8799 25.3704,17.8799 C25.8314,17.8799 26.2054,18.2539 26.2054,18.7159" id="Fill-10" fill="#999999"></path>
        <path d="M6.7054,14.7365 C6.4134,14.7365 6.1564,14.6225 5.9364,14.4605 L5.9164,17.5365 C6.1304,17.3875 6.3744,17.2815 6.6524,17.2815 C6.8614,17.2815 7.0534,17.3405 7.2284,17.4265 L7.2394,14.6195 C7.0754,14.6925 6.8964,14.7365 6.7054,14.7365" id="Fill-12" fill="#999999"></path>
        <path d="M20.3382,21.9952 L20.3082,23.0632 C20.3082,23.5822 21.1652,23.5822 21.1652,23.0632 L21.1502,22.0382 L24.7492,19.8992 C24.3322,19.6772 24.0382,19.2512 24.0382,18.7472 C24.0382,18.6602 24.0712,18.5852 24.0872,18.5022 L21.4042,20.1042 C21.0292,20.3292 20.5632,20.3322 20.1852,20.1142 L17.2702,18.4322 C17.3162,18.5672 17.3562,18.7062 17.3562,18.8562 C17.3562,19.3192 17.1012,19.7082 16.7392,19.9442 L20.3382,21.9952 Z" id="Fill-14" fill="#999999"></path>
        <path d="M10.9232,23.0636 C10.9232,23.4746 11.6802,23.4746 11.6802,23.0636 L11.6732,22.0316 L15.2762,19.9106 C14.9422,19.6696 14.7102,19.2966 14.7102,18.8566 C14.7102,18.7826 14.7402,18.7176 14.7532,18.6466 L11.8932,20.3546 C11.5182,20.5786 11.0512,20.5826 10.6732,20.3636 L7.9392,18.7866 C7.8682,19.2686 7.5562,19.6666 7.1102,19.8336 L10.9252,22.0416 L10.9232,23.0636 Z" id="Fill-16" fill="#999999"></path>
        <path d="M26.1068,12.8654 L21.1188,10.0414 L21.1058,8.9914 C21.1058,8.5054 20.3408,8.5054 20.3408,8.9914 L20.3408,10.0154 L16.0308,12.5284 L11.6418,9.9864 L11.6588,8.9914 C11.6588,8.4954 10.9298,8.4954 10.9298,8.9914 L10.9298,9.9724 L7.0948,12.1714 C7.5648,12.3194 7.9058,12.7134 7.9878,13.2084 L10.7368,11.6864 C11.1068,11.4814 11.5568,11.4854 11.9238,11.6974 L15.3328,13.6694 L15.3408,17.7574 C15.5458,17.6274 15.7748,17.5334 16.0338,17.5334 C16.2978,17.5334 16.5308,17.6314 16.7378,17.7654 L16.7548,13.3704 L20.2488,11.4364 C20.6188,11.2314 21.0698,11.2364 21.4358,11.4484 L24.8438,13.4204 L24.8538,17.5264 C25.0098,17.4614 25.1798,17.4234 25.3598,17.4234 C25.6648,17.4234 25.9318,17.5444 26.1568,17.7184 L26.1068,12.8654 Z" id="Fill-18" fill="#999999"></path>
        <path d="M23.4447,14.4298 L23.4327,16.8948 C23.4307,17.3248 23.1997,17.7208 22.8257,17.9318 L20.9417,19.0078 C20.4497,19.2758 20.8187,19.9538 21.3107,19.6868 L23.5837,18.3208 C23.9457,18.1048 24.1697,17.7148 24.1707,17.2938 L24.1827,14.4298 C24.1827,13.9408 23.4447,13.9408 23.4447,14.4298" id="Fill-20" fill="#999999"></path>
        <path d="M13.9671,14.4298 L13.9551,16.8948 C13.9531,17.3248 13.7221,17.7208 13.3471,17.9318 L11.4641,19.0078 C10.9721,19.2758 11.3401,19.9538 11.8321,19.6868 L14.1061,18.3208 C14.4681,18.1048 14.6921,17.7148 14.6931,17.2938 L14.7041,14.4298 C14.7041,13.9408 13.9671,13.9408 13.9671,14.4298" id="Fill-22" fill="#999999"></path>
        <path d="M8.5687,14.3888 C8.3077,14.5378 7.9657,13.9458 8.2267,13.7958 L10.8977,12.2558 C11.2597,12.0468 11.6017,12.6398 11.2397,12.8488 L8.5687,14.3888 Z" id="Fill-24" fill="#999999"></path>
        <path d="M18.0257,14.3888 C17.7657,14.5378 17.4237,13.9458 17.6837,13.7958 L20.3547,12.2558 C20.7177,12.0468 21.0597,12.6398 20.6967,12.8488 L18.0257,14.3888 Z" id="Fill-26" fill="#999999"></path>
    </g>
</svg>