<?xml version="1.0" encoding="UTF-8"?>
<svg width="32px" height="32px" viewBox="0 0 32 32" version="1.1" xmlns="http://www.w3.org/2000/svg" xmlns:xlink="http://www.w3.org/1999/xlink">
    <title>ICONS/INGREDIENTES/32/32_carne</title>
    <g id="ICONS/INGREDIENTES/32/32_carne" stroke="none" stroke-width="1" fill="none" fill-rule="evenodd">
        <path d="M30.6415,15.7672 C30.6415,18.0592 27.9915,20.3162 24.1955,21.2582 C22.1345,21.7692 20.1305,22.9152 18.0675,24.7632 C16.2475,26.3922 13.8345,27.2892 11.2725,27.2892 C5.8375,27.2892 1.2455,23.2962 1.2455,18.5702 L1.2455,17.4682 C3.2135,20.8122 7.1815,22.9302 11.2725,22.9302 C14.1425,22.9302 16.8505,21.9192 18.8985,20.0852 C20.8065,18.3772 22.6365,17.3232 24.4955,16.8622 C27.2055,16.1892 29.3715,14.9162 30.6415,13.3612 L30.6415,15.7672 Z M20.9885,3.0002 L19.3695,3.0002 C19.0255,3.0002 18.7455,3.2792 18.7455,3.6222 C18.7455,3.9672 19.0255,4.2462 19.3695,4.2462 L20.9885,4.2462 C24.9685,4.2462 30.6415,6.2072 30.6415,10.1622 C30.6415,12.4542 27.9915,14.7112 24.1955,15.6532 C22.1345,16.1642 20.1305,17.3102 18.0675,19.1572 C16.2475,20.7872 13.8345,21.6842 11.2725,21.6842 C5.8375,21.6842 1.2455,17.6912 1.2455,12.9652 C1.2455,8.1572 5.5765,4.2462 10.8995,4.2462 L13.7635,4.2462 C14.1085,4.2462 14.3865,3.9672 14.3865,3.6222 C14.3865,3.2792 14.1085,3.0002 13.7635,3.0002 L10.8995,3.0002 C4.8895,3.0002 -0.0005,7.4702 -0.0005,12.9652 L-0.0005,18.5702 C-0.0005,24.2792 5.4865,28.5352 11.2725,28.5352 C14.1425,28.5352 16.8505,27.5242 18.8985,25.6902 C20.8065,23.9822 22.6365,22.9282 24.4955,22.4672 C28.9165,21.3702 31.8875,18.6782 31.8875,15.7672 L31.8875,10.1622 C31.8875,5.4462 25.8225,3.0002 20.9885,3.0002 L20.9885,3.0002 Z" id="Fill-11" fill="#BDAD90"></path>
        <path d="M8.7489,6.8024 C8.4409,6.6484 8.0669,6.7734 7.9129,7.0814 L4.1769,14.5544 C4.0219,14.8624 4.1469,15.2364 4.4549,15.3904 C4.7639,15.5444 5.1379,15.4184 5.2899,15.1124 L9.0269,7.6384 C9.1809,7.3304 9.0569,6.9564 8.7489,6.8024" id="Fill-1" fill="#BDAD90"></path>
        <path d="M13.7968,19.1271 C14.1048,19.2811 14.4788,19.1561 14.6328,18.8491 L20.2368,7.6381 C20.3918,7.3311 20.2668,6.9561 19.9588,6.8021 C19.6508,6.6481 19.2768,6.7731 19.1238,7.0811 L13.5188,18.2921 C13.3638,18.5991 13.4888,18.9731 13.7968,19.1271" id="Fill-3" fill="#BDAD90"></path>
        <path d="M14.3534,6.8024 C14.0454,6.6484 13.6714,6.7734 13.5184,7.0814 L7.9134,18.2914 C7.7594,18.5994 7.8834,18.9734 8.1914,19.1274 C8.4994,19.2814 8.8744,19.1564 9.0274,18.8484 L14.6324,7.6384 C14.7864,7.3304 14.6624,6.9564 14.3534,6.8024" id="Fill-5" fill="#BDAD90"></path>
        <path d="M23.0399,13.2433 L25.8429,7.6383 C25.9969,7.3303 25.8719,6.9563 25.5639,6.8023 C25.2569,6.6483 24.8829,6.7733 24.7279,7.0813 L21.9259,12.6863 C21.7719,12.9933 21.8969,13.3683 22.2049,13.5223 C22.5139,13.6763 22.8869,13.5503 23.0399,13.2433" id="Fill-7" fill="#BDAD90"></path>
        <path d="M16.5663,3.0001 C16.9113,3.0001 17.1893,3.2791 17.1893,3.6231 C17.1893,3.9671 16.9113,4.2461 16.5663,4.2461 C16.2223,4.2461 15.9443,3.9671 15.9443,3.6231 C15.9443,3.2791 16.2223,3.0001 16.5663,3.0001" id="Fill-9" fill="#BDAD90"></path>
    </g>
</svg>