<?xml version="1.0" encoding="UTF-8"?>
<svg width="32px" height="32px" viewBox="0 0 32 32" version="1.1" xmlns="http://www.w3.org/2000/svg" xmlns:xlink="http://www.w3.org/1999/xlink">
    <title>ICONS/INGREDIENTES/32/32_huevos</title>
    <g id="ICONS/INGREDIENTES/32/32_huevos" stroke="none" stroke-width="1" fill="none" fill-rule="evenodd">
        <path d="M22.3782326,25.9359346 C20.8957955,25.9359346 19.4621474,25.531666 18.1833109,24.7994059 C18.7190524,24.5543658 19.2444731,24.2988375 19.7464376,24.0232865 C23.4572216,21.9876416 25.5851756,19.5086362 25.5851756,17.2212769 C25.5851756,14.9339176 23.4572216,12.4558656 19.7464376,10.4211742 C18.5539201,9.76709817 17.250689,9.19406652 15.9408902,8.72877627 C15.9718525,8.69254465 16.0046913,8.65726649 16.0253328,8.61150024 C16.8603765,6.80659357 17.8389726,5.2534013 18.8550988,4.12068649 C19.6967103,3.18247827 20.9905588,2.06406542 22.3782326,2.06406542 C24.2050079,2.06406542 26.3620477,4.07301331 28.1484783,7.43873996 C29.8260717,10.5966115 30.9538498,14.5286956 30.9538498,17.2212769 C30.9538498,22.0267337 27.106081,25.9359346 22.3782326,25.9359346 M1.04708849,17.2212769 C1.04708849,12.4167736 4.89391896,8.5075727 9.62270568,8.5075727 C12.2723274,8.5075727 16.141676,9.65268253 19.2501026,11.3574755 C22.5611916,13.1738238 24.5390254,15.3658367 24.5390254,17.2212769 C24.5390254,19.0776706 22.5611916,21.2696835 19.2501026,23.0860318 C16.141676,24.7908247 12.2723274,25.9359346 9.62270568,25.9359346 C4.89391896,25.9359346 1.04708849,22.0267337 1.04708849,17.2212769 M29.0707793,6.93340423 C27.068551,3.16245554 24.6290975,1 22.3782326,1 C20.6068141,1 19.0643289,2.30719865 18.0819797,3.40368184 C16.9954847,4.61458066 15.9568404,6.25835197 15.0786372,8.15860501 C15.0373541,8.24823059 15.0317246,8.34071656 15.0392306,8.43224907 C13.0839149,7.81345117 11.1633144,7.44350728 9.62270568,7.44350728 C4.31689439,7.44350728 0,11.8303935 0,17.2212769 C0,22.6140673 4.31689439,27 9.62270568,27 C11.6859204,27 14.4265525,26.3506913 17.0255087,25.3018813 C17.063977,25.3571821 17.1118278,25.4067623 17.1709377,25.4458543 C18.7228054,26.4622465 20.5223714,27 22.3782326,27 C27.6840439,27 32,22.6140673 32,17.2212769 C32,14.3675602 30.8224946,10.2333419 29.0707793,6.93340423" id="Fill-1" fill="#BDAD90"></path>
    </g>
</svg>