<?xml version="1.0" encoding="UTF-8"?>
<svg width="32px" height="32px" viewBox="0 0 32 32" version="1.1" xmlns="http://www.w3.org/2000/svg" xmlns:xlink="http://www.w3.org/1999/xlink">
    <title>ICONS/INGREDIENTES/32/32_pescado</title>
    <g id="ICONS/INGREDIENTES/32/32_pescado" stroke="none" stroke-width="1" fill="none" fill-rule="evenodd">
        <path d="M18.9819429,12.7988571 L15.6253714,12.7988571 L17.1019429,9.59885714 L17.5053714,9.59885714 L18.9819429,12.7988571 Z M18.1465143,1.06628571 C18.5099429,1.67314286 18.9796571,2.23314286 19.5430857,2.72914286 C20.1865143,3.33371429 20.7636571,3.98171429 21.2699429,4.66514286 C21.2950857,5.33257143 21.2356571,6.92685714 20.1659429,7.84457143 C19.5865143,8.32114286 18.7830857,8.57142857 17.9602286,8.53257143 L16.6482286,8.53257143 C16.3739429,8.53257143 16.1293714,8.67085714 16.0333714,8.87885714 L14.0642286,13.1451429 C14.0368,13.2045714 14.0219429,13.2685714 14.0219429,13.3325714 C14.0219429,13.6274286 14.3168,13.8651429 14.6790857,13.8651429 L19.9293714,13.8651429 C20.2916571,13.8651429 20.5853714,13.6262857 20.5853714,13.3314286 C20.5853714,13.2685714 20.5716571,13.2045714 20.5442286,13.1451429 L18.8790857,9.53714286 C19.7350857,9.42628571 20.5236571,9.08914286 21.1190857,8.57714286 C21.7282286,8.024 22.1499429,7.352 22.3419429,6.62628571 C22.9648,8.28 23.2573714,10.0034286 23.2105143,11.7314286 C23.2105143,18.6354286 19.6859429,25.2137143 18.8596571,26.664 L16.6276571,26.664 C16.4448,24.2754286 15.0608,22.3188571 13.6002286,20.2548571 C11.8722286,17.8114286 10.0848,15.2834286 10.0848,11.7314286 C10.0848,5.71771429 15.8230857,1.74171429 16.8710857,1.06628571 L18.1465143,1.06628571 Z M8.4048,7.11314286 L9.60594286,7.60114286 C9.05508571,8.93257143 8.7728,10.3268571 8.77165714,11.7314286 C8.79908571,14 9.48137143,16.232 10.7659429,18.2468571 L9.9088,18.7702857 C9.70308571,18.2342857 9.45051429,17.7097143 9.15451429,17.2022857 C8.31565714,15.7862857 7.74194286,14.2765714 7.4528,12.7234286 C7.1168,10.8171429 7.44708571,8.87314286 8.4048,7.11314286 L8.4048,7.11314286 Z M12.5419429,20.8994286 C13.3270857,21.9508571 14.0105143,23.0502857 14.5876571,24.1874286 L13.7225143,24.7131429 C13.1968,23.56 12.4973714,22.464 11.6436571,21.4468571 L12.5419429,20.8994286 Z M23.7842286,20.8811429 L23.2105143,19.7931429 C24.0505143,17.1588571 24.4905143,14.4525714 24.5236571,11.7314286 C24.5259429,10.9428571 24.4733714,10.1554286 24.3693714,9.37028571 L25.2070857,9.50742857 C25.2870857,10.9862857 25.4265143,16.2365714 23.7842286,20.8811429 L23.7842286,20.8811429 Z M18.8676571,27.7302857 L20.4973714,30.3794286 C19.6928,30.096 18.8356571,29.9211429 17.9602286,29.864 C17.0025143,29.9337143 16.0653714,30.1337143 15.1888,30.4548571 L16.4459429,27.7302857 L18.8676571,27.7302857 Z M18.6173714,0 L16.6482286,0 C16.5099429,0 16.3739429,0.0354285714 16.2619429,0.101714286 C13.5659429,1.81485714 11.4368,4.048 10.0688,6.59771429 L8.40594286,5.92228571 C8.1008,5.79885714 7.72937143,5.88685714 7.55337143,6.12457143 C6.21051429,8.19542857 5.72022857,10.5611429 6.15337143,12.8742857 C6.45737143,14.5257143 7.06422857,16.1302857 7.95451429,17.6354286 C8.39108571,18.2845714 8.66994286,18.9965714 8.77165714,19.7314286 C8.77165714,19.8468571 8.81737143,19.9588571 8.90422857,20.0514286 C9.12022857,20.2868571 9.53165714,20.3348571 9.82194286,20.1577143 L11.3750857,19.2102857 C11.5442286,19.4651429 11.7156571,19.7165714 11.8870857,19.9657143 L10.3465143,20.904 C10.0573714,21.0811429 9.99908571,21.416 10.2162286,21.6514286 C11.3270857,22.8868571 12.1773714,24.264 12.7293714,25.7268571 C12.7510857,25.7965714 12.7888,25.8605714 12.8413714,25.9177143 C13.0585143,26.1531429 13.4699429,26.2011429 13.7602286,26.024 L15.0128,25.264 C15.2105143,25.8685714 15.3168,26.4902857 15.3293714,27.1165714 L13.4070857,31.2788571 C13.3430857,31.4182857 13.3533714,31.5725714 13.4345143,31.7051429 C13.5979429,31.9691429 13.9922286,32.0754286 14.3156571,31.9428571 C15.0070857,31.6594286 17.0128,30.9302857 17.9602286,30.9302857 C18.8048,30.9302857 20.6436571,31.5497143 21.6048,31.9428571 C21.6973714,31.9805714 21.7990857,32 21.9019429,32 C22.2642286,31.9977143 22.5568,31.7577143 22.5545143,31.464 C22.5556571,31.3805714 22.5316571,31.2982857 22.4870857,31.224 L20.0059429,27.192 C21.0642286,25.3337143 21.9499429,23.4137143 22.6550857,21.448 L23.2653714,22.6068571 C23.3373714,22.7417143 23.4745143,22.8468571 23.6448,22.8971429 C23.9853714,22.9977143 24.3613714,22.8548571 24.4848,22.5782857 C26.2688,18.5942857 26.5716571,13.9565714 26.5716571,11.2674286 C26.5716571,9.97257143 26.5008,9.12914286 26.4928,9.02742857 C26.4722286,8.78857143 26.2562286,8.59085714 25.9670857,8.54285714 L24.1773714,8.25142857 C23.7350857,5.94285714 22.4779429,3.78857143 20.5556571,2.05028571 C19.9842286,1.58171429 19.5408,1.02057143 19.2528,0.403428571 C19.1808,0.166857143 18.9179429,0 18.6173714,0 L18.6173714,0 Z" id="Fill-1" fill="#BDAD90"></path>
        <path d="M16.1716571,4.26651429 C16.4733714,4.26651429 16.7190857,4.50422857 16.7190857,4.79908571 C16.7190857,5.09394286 16.4733714,5.3328 16.1716571,5.3328 C15.8688,5.3328 15.6242286,5.09394286 15.6242286,4.79908571 C15.6242286,4.50422857 15.8688,4.26651429 16.1716571,4.26651429 M16.1716571,3.19908571 C15.2653714,3.19908571 14.5305143,3.91565714 14.5305143,4.79908571 C14.5305143,5.68251429 15.2653714,6.39908571 16.1716571,6.39908571 C17.0779429,6.39908571 17.8128,5.68251429 17.8128,4.79908571 C17.8128,3.91565714 17.0779429,3.19908571 16.1716571,3.19908571" id="Fill-4" fill="#BDAD90"></path>
        <path d="M14.4529143,6.67325714 L13.5157714,6.12468571 C13.4437714,6.23897143 11.7957714,8.94982857 11.7957714,11.7315429 C11.7957714,14.3281143 12.7363429,16.9441143 15.1489143,21.0595429 L16.0986286,20.5304 C13.7900571,16.5921143 12.8894857,14.1246857 12.8894857,11.7315429 C12.8894857,9.2504 14.4369143,6.6984 14.4529143,6.67325714" id="Fill-6" fill="#BDAD90"></path>
        <path d="M14.9573714,16.0125714 C15.5653714,16.6617143 16.5996571,16.7085714 17.2659429,16.1154286 C17.5676571,16.3851429 17.9642286,16.5337143 18.3733714,16.5314286 C19.2750857,16.528 20.0042286,15.8114286 19.9996785,14.9314286 L18.9059429,14.9314286 C18.9059429,15.2262857 18.6613714,15.4651429 18.3596571,15.4651429 C18.0568,15.4651429 17.8122286,15.2262857 17.8122286,14.9314286 L16.7185143,14.9314286 C16.7185143,15.2262857 16.4728,15.4651429 16.1710857,15.4651429 C15.8693714,15.4651429 15.6248,15.2262857 15.6248,14.9314286 L14.5310603,14.9314286 C14.5288,15.3314286 14.6808,15.7165714 14.9573714,16.0125714" id="Fill-8" fill="#BDAD90"></path>
        <path d="M17.2653714,19.1978286 C18.1716571,19.1978286 18.9065143,18.4824 18.9065143,17.5978286 L17.8128,17.5978286 C17.8128,17.8926857 17.5670857,18.1315429 17.2653714,18.1315429 C16.9625143,18.1315429 16.7179429,17.8926857 16.7179429,17.5978286 L15.6242286,17.5978286 C15.6242286,18.4824 16.3590857,19.1978286 17.2653714,19.1978286" id="Fill-10" fill="#BDAD90"></path>
        <polygon id="Fill-12" fill="#BDAD90" points="16.7188571 21.3314286 17.8125714 21.3314286 17.8125714 20.2651429 16.7188571 20.2651429"></polygon>
        <polygon id="Fill-14" fill="#BDAD90" points="16.7188571 23.464 17.8125714 23.464 17.8125714 22.3977143 16.7188571 22.3977143"></polygon>
    </g>
</svg>