<?xml version="1.0" encoding="UTF-8"?>
<svg width="32px" height="32px" viewBox="0 0 32 32" version="1.1" xmlns="http://www.w3.org/2000/svg" xmlns:xlink="http://www.w3.org/1999/xlink">
    <title>ICONS/ALERGENOS/32/32_soja_color_borde</title>
    <g id="ICONS/ALERGENOS/32/32_soja_color_borde" stroke="none" stroke-width="1" fill="none" fill-rule="evenodd">
        <path d="M6.02963684,3.4879 C12.9396368,-2.0191 23.0066368,-0.8811 28.5126368,6.0289 C34.0196368,12.9399 32.8816368,23.0059 25.9706368,28.5119 C19.0606368,34.0189 8.99463684,32.8819 3.48763684,25.9699 C-2.01936316,19.0599 -0.881363164,8.9939 6.02963684,3.4879" id="Fill-1" stroke="none" stroke-width="0.5"></path>
        <path d="M10.3025,20.5452 C9.0905,20.7262 8.4085,21.7052 8.4755,22.5122 C8.5315,23.1942 9.1105,23.9172 10.5665,23.9172 C10.5875,23.9172 10.6105,23.9152 10.6335,23.9152 C11.6115,23.9012 12.4005,23.4842 12.7435,22.8022 C13.0015,22.2842 12.9605,21.7042 12.6315,21.2502 C12.1955,20.6482 11.3465,20.3892 10.3025,20.5452" id="Fill-6" fill="#999999"></path>
        <path d="M16.4665,18.9133 C15.2485,19.4583 14.9115,20.6013 15.2145,21.4003 C15.4195,21.9383 15.9695,22.4473 16.9085,22.4473 C17.2085,22.4473 17.5475,22.3953 17.9285,22.2773 C18.8595,21.9843 19.4715,21.3893 19.6075,20.6423 C19.7195,20.0333 19.4815,19.4143 18.9855,19.0233 C18.3445,18.5233 17.4275,18.4823 16.4665,18.9133" id="Fill-8" fill="#999999"></path>
        <path d="M23.407,13.6487 C22.566,13.4287 21.575,13.7927 20.761,14.6227 C19.805,15.5947 19.968,16.7907 20.605,17.4217 C20.918,17.7297 21.346,17.9237 21.836,17.9237 C22.41,17.9237 23.07,17.6597 23.726,17.0027 C24.448,16.2807 24.751,15.4617 24.56,14.7557 C24.413,14.2117 23.981,13.7977 23.407,13.6487" id="Fill-10" fill="#999999"></path>
        <path d="M25.093,15.9339 C24.379,17.5699 23.759,17.8749 21.915,18.7789 L21.868,18.8009 C20.738,19.3549 20.572,20.1719 20.426,20.8949 C20.295,21.5449 20.17,22.1619 19.377,22.7409 C18.27,23.5459 17.242,23.3379 16.247,23.1349 C15.705,23.0259 15.19,22.9199 14.683,22.9789 C14.02,23.0559 13.644,23.3639 13.279,23.6629 C12.79,24.0639 12.236,24.5179 10.703,24.6799 C8.901,24.8719 8.123,24.0469 7.225,23.0919 C7.057,22.9139 6.885,22.7319 6.705,22.5529 C6.944,22.3139 7.176,22.0009 7.431,21.6559 C8.09,20.7699 8.911,19.6649 10.134,19.5059 C11.266,19.3599 11.694,19.4989 12.109,19.6329 C12.443,19.7419 12.789,19.8539 13.395,19.8179 C14.33,19.7609 14.77,19.2079 15.157,18.7209 C15.387,18.4339 15.601,18.1629 15.91,17.9939 C16.451,17.6979 16.792,17.6809 17.153,17.6609 C17.535,17.6419 17.931,17.6209 18.447,17.2839 C19.256,16.7559 19.396,16.1689 19.534,15.6019 C19.64,15.1569 19.751,14.6969 20.224,14.1649 C21.525,12.6999 22.877,12.5159 24.07,12.3529 C24.426,12.3039 24.768,12.2569 25.093,12.1799 C25.122,12.4729 25.199,12.7499 25.272,13.0229 C25.479,13.7759 25.691,14.5549 25.093,15.9339 M25.992,12.8249 C25.883,12.4279 25.789,12.0849 25.843,11.7289 C25.862,11.5969 25.81,11.4659 25.706,11.3829 C25.601,11.2989 25.46,11.2799 25.338,11.3279 C24.948,11.4799 24.472,11.5439 23.969,11.6139 C23.298,11.7049 22.537,11.8169 21.749,12.1489 C22.006,11.7969 22.261,11.3379 22.499,10.6799 C23.016,9.2479 22.679,7.9029 22.353,6.6019 C22.211,6.0259 22.073,5.4819 22.015,4.9459 C22,4.8059 21.907,4.6849 21.773,4.6369 C21.642,4.5859 21.492,4.6189 21.39,4.7139 C20.908,5.1679 20.368,5.3519 19.798,5.5459 C18.92,5.8449 17.926,6.1849 17.042,7.5259 C16.319,8.6229 16.317,9.6379 16.315,10.3789 C16.314,10.8379 16.314,11.2019 16.159,11.4219 C15.915,11.7699 15.651,11.9029 15.315,12.0689 C15.006,12.2229 14.655,12.3989 14.276,12.7579 C13.901,13.1099 13.759,13.5939 13.62,14.0619 C13.452,14.6269 13.293,15.1609 12.764,15.5489 C12.387,15.8269 11.952,15.9439 11.487,16.0229 C11.269,16.0479 11.047,16.0799 10.82,16.1219 C9.295,16.3449 7.63,16.7549 7.018,20.9639 C6.955,21.0469 6.892,21.1309 6.832,21.2109 C6.507,21.6489 6.199,22.0629 5.945,22.2229 C5.845,22.2849 5.781,22.3909 5.77,22.5079 C5.761,22.6249 5.807,22.7409 5.895,22.8189 C6.172,23.0619 6.43,23.3369 6.681,23.6019 C7.539,24.5149 8.423,25.4549 10.193,25.4549 C10.379,25.4549 10.576,25.4449 10.783,25.4229 C12.536,25.2369 13.21,24.6839 13.752,24.2399 C14.083,23.9669 14.322,23.7719 14.768,23.7199 C15.158,23.6759 15.615,23.7699 16.098,23.8669 C17.144,24.0789 18.445,24.3419 19.817,23.3419 C20.843,22.5919 21.019,21.7339 21.158,21.0419 C21.297,20.3579 21.396,19.8629 22.196,19.4719 L22.242,19.4479 C24.104,18.5379 24.954,18.1219 25.777,16.2309 C26.481,14.6119 26.211,13.6209 25.992,12.8249" id="Fill-4" fill="#999999"></path>
    </g>
</svg>