<?xml version="1.0" encoding="UTF-8"?>
<svg width="32px" height="32px" viewBox="0 0 32 32" version="1.1" xmlns="http://www.w3.org/2000/svg" xmlns:xlink="http://www.w3.org/1999/xlink">
    <title>ICONS/INGREDIENTES/32/32_pimiento-rojo</title>
    <g id="ICONS/INGREDIENTES/32/32_pimiento-rojo" stroke="none" stroke-width="1" fill="none" fill-rule="evenodd">
        <path d="M27.6173608,17.0641137 C26.2091626,24.8847372 24.0097019,29.9681996 21.7310017,30.6630614 C20.9204954,30.911063 20.0228256,30.589918 19.0595003,29.7087693 C19.9560381,28.4241893 20.6556092,26.4127473 21.1876455,23.5864428 C21.2521691,23.247012 21.0314306,22.9201527 20.6963609,22.8561522 C20.3590273,22.7910089 20.0364095,23.0138676 19.971886,23.3532984 C19.4115499,26.3247468 18.6904709,28.2881884 17.7656333,29.3544812 C17.2426529,29.956771 16.6653369,30.2493443 15.9997256,30.2493443 C15.4382575,30.2493443 14.9526328,30.0710574 14.5134199,29.7053407 C12.191704,27.7670421 11.4434572,20.7247095 11.0178282,14.0915224 C10.8593493,11.6286489 12.5097938,10.2126394 14.8609415,9.83206549 C15.6091883,9.70977896 16.3913948,9.70977896 17.1407736,9.83206549 C19.4896573,10.2126394 21.1412338,11.6183631 20.9827549,14.0915224 C20.8774797,15.7395334 20.7631485,17.1669715 20.6363653,18.4549801 C20.6035376,18.7978395 20.8503119,19.1041272 21.1910415,19.1384132 C21.5317711,19.1715563 21.835145,18.9212689 21.8691048,18.5784095 C21.9970199,17.2766865 22.1113511,15.8343912 22.2177584,14.1726658 C22.3422775,12.2332243 21.6019546,10.9715016 20.7540925,10.1726392 C21.7321337,9.565778 22.7135709,9.14863236 23.846695,9.33834791 C24.8417161,9.51434908 25.7756096,10.1692106 26.4955566,11.2023603 C27.303799,12.3600823 27.7520679,13.8675209 27.7611238,15.44696 C27.7509359,16.469824 27.595853,16.8321121 27.6173608,17.0641137 L27.6173608,17.0641137 Z M10.3725927,30.6287754 C8.0803086,30.1784867 5.83896417,25.0447382 4.37756233,16.8972554 C4.09230031,15.3132448 4.25870315,13.6915198 4.84394309,12.3303678 C5.51747841,10.7646431 6.8136094,9.41949131 8.47310987,9.29834765 C9.47718689,9.2252043 10.3725927,9.62749269 11.2476226,10.1726392 C10.3997605,10.9715016 9.65830563,12.2332243 9.78282477,14.1726658 C10.0884626,18.9406976 10.4891879,22.3498631 11.044996,24.8995944 C11.5906162,27.4024682 12.2867914,29.1019081 13.2116289,30.1624866 C12.5233777,30.6950616 11.7524911,30.8984915 10.3725927,30.6287754 L10.3725927,30.6287754 Z M10.9487767,6.79890243 C12.1147286,6.71318757 13.1335215,7.26976271 14.1466544,7.94519578 C14.1455225,8.00576761 14.1432585,8.06405371 14.1432585,8.12462554 L14.1432585,8.70062938 C13.484439,8.85377326 12.8697673,9.08691767 12.3286751,9.3874911 C11.1989469,8.63548609 9.96733948,7.9703388 8.48556178,8.04576787 C9.19645284,7.30976297 10.0578989,6.86290285 10.9487767,6.79890243 L10.9487767,6.79890243 Z M15.3805259,8.12462554 C15.3805259,4.3223145 18.4561485,1.25029404 22.1905905,1.25029404 C22.5324522,1.25029404 22.8097902,1.53029591 22.8097902,1.8742982 C22.8097902,2.21944335 22.5324522,2.49944522 22.1905905,2.49944522 C19.1228919,2.49944522 16.6189253,5.00460476 16.6189253,8.12462554 L16.6189253,8.51548529 C16.2080121,8.48462794 15.792571,8.48462794 15.3805259,8.51548529 L15.3805259,8.12462554 Z M21.0518065,6.79890243 C21.0540704,6.79890243 21.0563344,6.79890243 21.0585984,6.79890243 C21.9472122,6.86518858 22.8075263,7.3120487 23.5172853,8.04576787 C23.4425738,8.04233928 23.3678624,8.04005355 23.2920189,8.04005355 C21.8996686,8.04005355 20.7382446,8.67662922 19.6707761,9.3874911 C19.1308158,9.0857748 18.5161441,8.85263039 17.8573247,8.70062938 L17.8573247,8.12462554 C17.8573247,8.06405371 17.8595886,8.00233901 17.8618526,7.94176718 C18.8398938,7.28804854 19.8767986,6.71318757 21.0518065,6.79890243 L21.0518065,6.79890243 Z M25.4450679,8.58177144 C24.4421229,6.80233102 22.846014,5.67546637 21.1412338,5.55203698 C21.1389699,5.55203698 21.1367059,5.55089411 21.1333099,5.55089411 C20.1564007,5.48232223 19.2564669,5.7360382 18.381437,6.18061259 C18.3486092,6.19775557 18.3146495,6.2160414 18.2818217,6.23318437 C18.9836568,4.75317452 20.4812824,3.74973926 22.1905905,3.74973926 C23.2139114,3.74973926 24.0481896,2.9085908 24.0481896,1.8742982 C24.0481896,0.84114846 23.2139114,0 22.1905905,0 C18.3112535,0 15.0194204,2.81030443 14.2938134,6.56004369 C13.2772845,5.93832527 12.1656682,5.45603634 10.8593493,5.55203698 C9.15343714,5.67546637 7.55732823,6.80347389 6.55551519,8.58291431 C5.34767959,9.21606138 4.34133858,10.3612119 3.70855498,11.8320788 C3.01690778,13.4412324 2.8267331,15.269816 3.15953879,17.120114 C3.91570954,21.3349992 5.98046319,31.0402067 10.1360063,31.8550693 C11.7343792,32.1682143 12.9557987,32.0150704 14.1670303,30.987635 C14.7194425,31.3259229 15.3329822,31.4984955 15.9997256,31.4984955 C16.8283438,31.4984955 17.5777226,31.2104936 18.23541,30.6402041 C19.3492903,31.6584966 20.6624012,32.2950722 22.0887113,31.8596408 C26.0789835,30.6424898 28.0984575,21.3932853 28.8421763,17.2481149 C28.9485836,16.6549681 29.0017872,16.0515355 28.9997643,15.4572458 L28.9997643,15.4526743 L28.9997643,15.4481029 L28.9997643,15.4446743 L28.9997643,15.4412457 C29.0210311,12.4343685 27.6015129,9.71206469 25.4450679,8.58177144 L25.4450679,8.58177144 Z" id="Fill-1" fill="#BDAD90"></path>
    </g>
</svg>