<?xml version="1.0" encoding="UTF-8"?>
<svg width="32px" height="32px" viewBox="0 0 32 32" version="1.1" xmlns="http://www.w3.org/2000/svg" xmlns:xlink="http://www.w3.org/1999/xlink">
    <title>ICONS/INGREDIENTES/32/32_curry</title>
    <g id="ICONS/INGREDIENTES/32/32_curry" stroke="none" stroke-width="1" fill="none" fill-rule="evenodd">
        <path d="M15.9998,30.9676 C7.7468,30.9676 1.0318,24.2536 1.0318,15.9996 C1.0318,7.7466 7.7468,1.0316 15.9998,1.0316 C24.2528,1.0316 30.9678,7.7466 30.9678,15.9996 C30.9678,24.2536 24.2528,30.9676 15.9998,30.9676 M15.9998,-0.0004 C7.1778,-0.0004 -0.0002,7.1776 -0.0002,15.9996 C-0.0002,24.8216 7.1778,31.9996 15.9998,31.9996 C24.8228,31.9996 31.9998,24.8216 31.9998,15.9996 C31.9998,7.1776 24.8228,-0.0004 15.9998,-0.0004" id="Fill-1" fill="#BDAD90"></path>
        <path d="M15.9998,28.9031 C11.6338,28.9031 7.7708,26.7211 5.4338,23.3921 C5.6198,23.1241 5.8878,22.9141 6.2018,22.8041 C6.3538,22.7511 6.4708,22.6311 6.5208,22.4791 C6.5718,22.3271 6.5488,22.1601 6.4588,22.0281 C6.2848,21.7711 6.1928,21.4721 6.1928,21.1611 C6.1928,20.3071 6.8888,19.6131 7.7418,19.6131 C7.9898,19.6131 8.2368,19.6781 8.4768,19.8081 C8.6948,19.9271 8.9678,19.8731 9.1248,19.6791 C9.4238,19.3091 9.8598,19.0971 10.3228,19.0971 C10.7748,19.0971 11.2048,19.3011 11.5038,19.6581 C11.6318,19.8121 11.8368,19.8781 12.0298,19.8261 C12.2248,19.7761 12.3708,19.6181 12.4068,19.4221 C12.5208,18.8141 13.1548,18.4071 13.7908,18.6531 C13.9328,18.7081 14.0918,18.6971 14.2258,18.6241 C14.3588,18.5501 14.4528,18.4221 14.4828,18.2731 C14.6268,17.5541 15.2658,17.0321 15.9998,17.0321 C16.7348,17.0321 17.3728,17.5541 17.5178,18.2741 C17.5468,18.4231 17.6418,18.5511 17.7738,18.6241 C17.9088,18.6981 18.0668,18.7091 18.2088,18.6531 C18.6738,18.4731 19.1428,18.6371 19.4138,19.0101 C19.5208,19.1561 19.6888,19.2391 19.8758,19.2201 C20.0558,19.2051 20.2148,19.0971 20.2948,18.9341 C20.5588,18.3981 21.0878,18.0651 21.6778,18.0651 C22.5308,18.0651 23.2258,18.7591 23.2258,19.6131 C23.2258,19.6421 23.2208,19.6701 23.2168,19.6971 L23.2058,19.7801 C23.1808,20.0061 23.3068,20.2211 23.5158,20.3101 C23.7248,20.4001 23.9668,20.3421 24.1128,20.1691 C24.4128,19.8161 24.8418,19.6131 25.2908,19.6131 C26.1448,19.6131 26.8388,20.3071 26.8388,21.1611 C26.8388,21.6691 26.5878,22.1451 26.1678,22.4351 C26.0158,22.5401 25.9318,22.7181 25.9468,22.9031 C25.9618,23.0861 26.0738,23.2481 26.2418,23.3271 C26.3348,23.3701 26.4178,23.4271 26.4928,23.4951 C24.1508,26.7651 20.3208,28.9031 15.9998,28.9031 M15.9998,3.0971 C23.1148,3.0971 28.9028,8.8851 28.9028,16.0001 C28.9028,17.8001 28.5308,19.5161 27.8618,21.0741 C27.8138,19.6921 26.6838,18.5811 25.2908,18.5811 C24.8888,18.5811 24.4968,18.6761 24.1448,18.8541 C23.8188,17.8001 22.8368,17.0321 21.6778,17.0321 C20.9218,17.0321 20.2258,17.3581 19.7438,17.9121 C19.3478,17.6401 18.8588,17.5071 18.3698,17.5601 C17.9698,16.6321 17.0428,16.0001 15.9998,16.0001 C14.9568,16.0001 14.0308,16.6321 13.6298,17.5601 C12.8528,17.4761 12.1108,17.8541 11.7008,18.4711 C11.2918,18.2081 10.8148,18.0651 10.3228,18.0651 C9.6828,18.0651 9.0718,18.3041 8.6008,18.7351 C8.3208,18.6321 8.0338,18.5811 7.7418,18.5811 C6.3188,18.5811 5.1608,19.7381 5.1608,21.1611 C5.1608,21.4801 5.2198,21.7931 5.3318,22.0861 C5.1548,22.1971 4.9968,22.3351 4.8518,22.4851 C3.7378,20.5781 3.0968,18.3631 3.0968,16.0001 C3.0968,8.8851 8.8858,3.0971 15.9998,3.0971 M15.9998,2.0651 C8.3158,2.0651 2.0638,8.3161 2.0638,16.0001 C2.0638,23.6841 8.3158,29.9351 15.9998,29.9351 C23.6848,29.9351 29.9358,23.6841 29.9358,16.0001 C29.9358,8.3161 23.6848,2.0651 15.9998,2.0651" id="Fill-4" fill="#BDAD90"></path>
        <path d="M23.3328,11.4617 C23.7198,11.0747 24.2288,10.8557 24.7728,10.8397 C24.7568,11.3777 24.5318,11.8987 24.1508,12.2797 C23.7648,12.6677 23.2558,12.8867 22.7108,12.9017 C22.7278,12.3647 22.9518,11.8427 23.3328,11.4617 M21.6778,12.9657 L21.6778,13.4197 C21.6778,13.7047 21.9078,13.9357 22.1928,13.9357 L22.6468,13.9357 C23.4918,13.9357 24.2848,13.6067 24.8808,13.0097 C25.4778,12.4127 25.8068,11.6197 25.8068,10.7757 L25.8068,10.3227 C25.8068,10.0377 25.5758,9.8067 25.2908,9.8067 L24.8368,9.8067 C23.9918,9.8067 23.1988,10.1347 22.6038,10.7317 C22.0068,11.3287 21.6778,12.1227 21.6778,12.9657" id="Fill-6" fill="#BDAD90"></path>
        <path d="M10.2156,8.8811 C10.5966,9.2621 10.8206,9.7841 10.8376,10.3211 C10.2926,10.3061 9.7836,10.0861 9.3976,9.6991 C9.0166,9.3181 8.7916,8.7961 8.7756,8.2591 C9.3196,8.2751 9.8286,8.4941 10.2156,8.8811 M10.9016,11.3551 L11.3556,11.3551 C11.6406,11.3551 11.8706,11.1241 11.8706,10.8391 L11.8706,10.3851 C11.8706,9.5421 11.5416,8.7481 10.9446,8.1511 C10.3496,7.5541 9.5566,7.2261 8.7116,7.2261 L8.2576,7.2261 C7.9726,7.2261 7.7416,7.4571 7.7416,7.7421 L7.7416,8.1951 C7.7416,9.0391 8.0706,9.8321 8.6676,10.4291 C9.2636,11.0261 10.0566,11.3551 10.9016,11.3551" id="Fill-8" fill="#BDAD90"></path>
        <path d="M19.0965,14.4514 C18.8125,14.4514 18.5805,14.2204 18.5805,13.9354 C18.5805,13.6514 18.8125,13.4194 19.0965,13.4194 C19.3815,13.4194 19.6135,13.6514 19.6135,13.9354 C19.6135,14.2204 19.3815,14.4514 19.0965,14.4514 M19.0965,12.3874 C18.2425,12.3874 17.5485,13.0814 17.5485,13.9354 C17.5485,14.7894 18.2425,15.4834 19.0965,15.4834 C19.9505,15.4834 20.6455,14.7894 20.6455,13.9354 C20.6455,13.0814 19.9505,12.3874 19.0965,12.3874" id="Fill-10" fill="#BDAD90"></path>
        <path d="M5.6775,15.9998 C5.9625,15.9998 6.1935,16.2318 6.1935,16.5158 C6.1935,16.8008 5.9625,17.0318 5.6775,17.0318 C5.3925,17.0318 5.1605,16.8008 5.1605,16.5158 C5.1605,16.2318 5.3925,15.9998 5.6775,15.9998 M5.6775,18.0648 C6.5315,18.0648 7.2255,17.3698 7.2255,16.5158 C7.2255,15.6628 6.5315,14.9678 5.6775,14.9678 C4.8235,14.9678 4.1285,15.6628 4.1285,16.5158 C4.1285,17.3698 4.8235,18.0648 5.6775,18.0648" id="Fill-12" fill="#BDAD90"></path>
        <path d="M13.4197,5.6775 C13.7037,5.6775 13.9357,5.9085 13.9357,6.1935 C13.9357,6.4775 13.7037,6.7095 13.4197,6.7095 C13.1347,6.7095 12.9027,6.4775 12.9027,6.1935 C12.9027,5.9085 13.1347,5.6775 13.4197,5.6775 M13.4197,7.7415 C14.2737,7.7415 14.9677,7.0475 14.9677,6.1935 C14.9677,5.3395 14.2737,4.6455 13.4197,4.6455 C12.5657,4.6455 11.8707,5.3395 11.8707,6.1935 C11.8707,7.0475 12.5657,7.7415 13.4197,7.7415" id="Fill-14" fill="#BDAD90"></path>
        <path d="M26.323,15.4837 C26.607,15.4837 26.839,15.7157 26.839,15.9997 C26.839,16.2847 26.607,16.5157 26.323,16.5157 C26.038,16.5157 25.806,16.2847 25.806,15.9997 C25.806,15.7157 26.038,15.4837 26.323,15.4837 M24.774,15.9997 C24.774,16.8537 25.469,17.5487 26.323,17.5487 C27.177,17.5487 27.871,16.8537 27.871,15.9997 C27.871,15.1467 27.177,14.4517 26.323,14.4517 C25.469,14.4517 24.774,15.1467 24.774,15.9997" id="Fill-16" fill="#BDAD90"></path>
        <path d="M11.3552,15.2703 L10.5362,14.4513 L11.3552,13.6333 L12.1732,14.4513 L11.3552,15.2703 Z M11.7192,12.5383 C11.5182,12.3363 11.1922,12.3363 10.9902,12.5383 L9.4412,14.0863 C9.2402,14.2883 9.2402,14.6143 9.4412,14.8163 L10.9902,16.3653 C11.0902,16.4653 11.2222,16.5163 11.3552,16.5163 C11.4872,16.5163 11.6192,16.4653 11.7192,16.3653 L13.2682,14.8163 C13.4692,14.6143 13.4692,14.2883 13.2682,14.0863 L11.7192,12.5383 Z" id="Fill-18" fill="#BDAD90"></path>
        <path d="M18.5808,5.3748 L19.3988,6.1938 L18.5808,7.0118 L17.7628,6.1938 L18.5808,5.3748 Z M18.2158,8.1068 C18.3158,8.2078 18.4488,8.2578 18.5808,8.2578 C18.7128,8.2578 18.8448,8.2078 18.9448,8.1068 L20.4938,6.5588 C20.6958,6.3568 20.6958,6.0308 20.4938,5.8288 L18.9448,4.2798 C18.7438,4.0788 18.4178,4.0788 18.2158,4.2798 L16.6678,5.8288 C16.4658,6.0308 16.4658,6.3568 16.6678,6.5588 L18.2158,8.1068 Z" id="Fill-20" fill="#BDAD90"></path>
        <path d="M14.7097,11.8709 L13.9357,11.8709 L13.9357,12.9029 L14.7097,12.9029 C15.4217,12.9029 15.9997,12.3239 15.9997,11.6129 C15.9997,11.4709 16.1157,11.3549 16.2577,11.3549 L17.0317,11.3549 L17.0317,10.3229 L16.2577,10.3229 C15.5467,10.3229 14.9677,10.9019 14.9677,11.6129 C14.9677,11.7549 14.8517,11.8709 14.7097,11.8709" id="Fill-22" fill="#BDAD90"></path>
        <path d="M7.2254,12.6453 C7.2254,12.5023 7.3414,12.3873 7.4844,12.3873 L8.2574,12.3873 L8.2574,11.3543 L7.4844,11.3543 C6.7724,11.3543 6.1934,11.9343 6.1934,12.6453 C6.1934,12.7873 6.0784,12.9033 5.9354,12.9033 L5.1614,12.9033 L5.1614,13.9353 L5.9354,13.9353 C6.6474,13.9353 7.2254,13.3563 7.2254,12.6453" id="Fill-24" fill="#BDAD90"></path>
        <path d="M20.6453,9.2903 L21.4193,9.2903 C22.1303,9.2903 22.7093,8.7113 22.7093,7.9993 C22.7093,7.8573 22.8263,7.7423 22.9673,7.7423 L23.7423,7.7423 L23.7423,6.7093 L22.9673,6.7093 C22.2553,6.7093 21.6773,7.2893 21.6773,7.9993 C21.6773,8.1423 21.5613,8.2583 21.4193,8.2583 L20.6453,8.2583 L20.6453,9.2903 Z" id="Fill-26" fill="#BDAD90"></path>
    </g>
</svg>