<?xml version="1.0" encoding="UTF-8"?>
<svg width="32px" height="32px" viewBox="0 0 32 32" version="1.1" xmlns="http://www.w3.org/2000/svg" xmlns:xlink="http://www.w3.org/1999/xlink">
    <title>ICONS/INGREDIENTES/32/32_tomate</title>
    <g id="ICONS/INGREDIENTES/32/32_tomate" stroke="none" stroke-width="1" fill="none" fill-rule="evenodd">
        <path d="M29.0893555,12.7057996 C28.1794434,11.131825 26.9125976,9.72826054 25.3950195,8.60692266 C26.6699219,7.43748904 27.1530762,6.04564335 27.1762695,5.97801641 C27.2788086,5.67552616 27.1362305,5.34544804 26.8461914,5.21117066 C26.5568848,5.0773816 26.2119141,5.18431523 26.0476074,5.45799685 C25.9868164,5.55809454 25.5512695,6.22118041 24.5805664,6.22118041 C24.2436524,6.22118041 23.8417969,6.14110229 23.3693848,5.92992066 C20.9724121,4.8586316 18.4350586,5.26927616 17.9743652,5.35667848 L17.6125488,5.35667848 C17.0725098,4.05931523 15.3862305,0.384266414 13.4912109,0.0349011637 C12.8088379,-0.0915637113 12.2236328,0.129139414 11.8869629,0.640369914 C11.4768066,1.26366091 11.4399414,2.46165898 12.1638184,3.5461316 C12.4318848,3.94725466 12.7668457,4.51683473 13.1494141,5.22044804 C12.078125,5.16624879 10.4943848,5.24681523 8.96679688,5.92992066 C7.13305663,6.74876835 6.37011719,5.59373904 6.28930663,5.45921754 C6.12817381,5.18797729 5.78930663,5.07933473 5.5,5.20677616 C5.21118163,5.33372929 5.0625,5.65672729 5.15380862,5.95921754 C5.1762695,6.03368041 5.65820312,7.59373904 6.94067381,8.92503785 C5.52636719,10.0532117 4.35009763,11.4382215 3.51318362,12.96703 C2.50927737,14.8027234 2,16.7814832 2,18.8483777 C2,22.3723035 3.50244138,25.6823621 6.23120119,28.1679578 C8.94384763,30.6393934 12.5461426,31.999989 16.375,31.999989 C20.2038574,31.999989 23.8061524,30.6393934 26.5187988,28.1679578 C29.2475586,25.6823621 30.75,22.3723035 30.75,18.8483777 C30.75,16.708241 30.1755371,14.5844617 29.0893555,12.7057996 Z M9.47680662,7.0712781 C11.1975097,6.30174685 13.0649414,6.4367566 13.8168945,6.53685429 L13.8842774,6.69115116 L13.8842774,6.69237185 L14.5769043,8.28001835 C14.7143555,8.59447148 15.0788574,8.73949098 15.3942871,8.60496954 C15.7099609,8.47118041 15.8586426,8.10814335 15.7275391,7.79124879 C15.5556641,7.37572148 15.2548828,6.69066285 15.0332031,6.18944216 C14.9506836,6.00316285 14.8850097,5.85496954 14.8493652,5.77635623 C14.8457031,5.76756716 14.8413086,5.7587781 14.8369141,5.75072148 C14.8288574,5.72874879 14.8193359,5.70750854 14.8088379,5.6867566 C14.1655274,4.4367566 13.625,3.48289916 13.203125,2.85179566 C12.8049316,2.25609254 12.7768555,1.56297729 12.9311524,1.32786991 C12.953125,1.29491091 13.0048828,1.21605348 13.2644043,1.26366091 C14.1181641,1.42161991 15.6181641,3.63866091 16.6074219,6.20628785 C16.7006836,6.44749879 16.9318847,6.60667848 17.1906738,6.60667848 L18.0361328,6.60667848 C18.0800781,6.60667848 18.1242676,6.60179566 18.1669922,6.5930066 C18.1794434,6.59056523 18.8168945,6.45994998 19.7299805,6.45994998 C20.6186524,6.45994998 21.7692871,6.58372929 22.859375,7.0712781 C23.6030274,7.40355348 24.2424316,7.49876835 24.7749024,7.46678591 C24.5512695,7.69749879 24.2932129,7.92308473 23.9968262,8.12547729 C22.7006836,9.01121954 21.0761719,9.18626835 19.1682129,8.64622929 C18.9350586,8.57982304 18.6843262,8.65501835 18.5256347,8.83812379 C18.3669434,9.02122929 18.3288574,9.28001835 18.4267578,9.50169804 C18.5224609,9.71556523 18.6943359,9.8854871 18.9555664,10.1437879 C19.4350586,10.6166883 20.2250976,11.3979383 20.6318359,12.6950574 C20.0036621,12.4287 19.4082031,12.3925672 18.9807129,12.3662 C18.7768555,12.3537488 18.5661621,12.3405652 18.4755859,12.3080945 L18.4143066,12.2868543 C17.0056152,11.7892957 16.7956543,11.3381238 16.7956543,11.1130262 C16.7956543,10.7680554 16.5100097,10.4880262 16.1650391,10.4880262 C15.8200684,10.4880262 15.5400391,10.7680554 15.5400391,11.1130262 C15.5400391,11.6498914 13.9580078,12.6257215 13.3117676,12.8561902 C13.2375488,12.8832898 13.1594238,12.9081922 13.078125,12.9350477 C12.7163086,13.0524793 12.28125,13.1931043 11.7724609,13.5187879 C12.2080078,12.2123914 12.9755859,11.3112684 13.4499512,10.7556043 C13.6767578,10.4887585 13.8269043,10.3132215 13.9086914,10.1306043 C14.0068359,9.90868041 13.96875,9.64989141 13.8100586,9.46678591 C13.6894531,9.32811404 13.5163574,9.25120973 13.3374024,9.25120973 C13.2805176,9.25120973 13.2231445,9.2587781 13.1669922,9.27489141 C11.2443847,9.81932498 9.61010744,9.5556531 8.30883787,8.49071166 L8.3081055,8.49071166 C7.91552737,8.16869023 7.59179687,7.80687379 7.32739256,7.44994023 C7.91381837,7.52928591 8.62817381,7.45067266 9.47680662,7.0712781 C11.1975097,6.30174685 8.62817381,7.45067266 9.47680662,7.0712781 Z M16.375,30.749989 C9.13818362,30.749989 3.25,25.4111219 3.25,18.8483777 C3.25,15.3151746 4.9418945,12.0244031 7.90869137,9.75365116 C8.78710937,10.3608289 9.81616212,10.7094617 10.8801269,10.7817273 C11.1950684,10.8029675 11.5114746,10.8012585 11.8261719,10.7792859 C11.1213379,11.7363172 10.3012695,13.1894422 10.2038574,15.176991 C10.1906738,15.4445691 10.3493652,15.6901746 10.5981445,15.7888074 C10.6726074,15.8183484 10.7507324,15.8325085 10.828125,15.8325085 C10.9294434,15.8325085 11.0288086,15.8083387 11.1181641,15.7614637 C11.1381836,15.7507215 11.1569824,15.7387585 11.1755371,15.7270398 C11.2224121,15.6950574 11.265625,15.6569715 11.3037109,15.6125379 C12.2307129,14.5244031 12.8862305,14.3112684 13.4643555,14.1237684 C13.5568847,14.093739 13.6442871,14.0649304 13.7331543,14.0336804 C13.7543945,14.0256238 15.2763672,13.413075 16.1643066,12.4567762 C16.7587891,13.0275769 17.6193847,13.3317762 17.9980469,13.4655652 L18.0544434,13.4855847 C18.3125,13.5773816 18.5993652,13.5949597 18.9038086,13.6137585 C19.5761719,13.6550184 20.3388672,13.7018934 21.0319824,14.515614 C21.2050781,14.7194715 21.4887695,14.7900281 21.7375488,14.6918835 C21.9863281,14.5930066 22.1450195,14.3474012 22.1318359,14.0800672 C22.0432129,12.2668347 21.3474121,11.0192762 20.6882324,10.1860242 C21.6762695,10.2553602 22.6813965,10.1320691 23.6005859,9.7526746 C23.8544922,9.64793829 24.1022949,9.52708866 24.3388672,9.38744023 C25.8581543,10.4418835 27.1213379,11.798573 28.0075684,13.3312879 C28.9836426,15.0200085 29.5,16.9274793 29.5,18.8481335 C29.5,25.4111219 23.6118164,30.749989 16.375,30.749989 L16.375,30.749989 Z" id="Shape" fill="#BDAD90" fill-rule="nonzero"></path>
        <path d="M16.375,29.4946179 C9.96484375,29.4946179 4.75,24.718739 4.75,18.8483777 C4.75,18.5031629 5.02978513,18.2233777 5.375,18.2233777 C5.72021487,18.2233777 6,18.5031629 6,18.8483777 C6,24.02953 10.6542969,28.2446179 16.375,28.2446179 C16.7202149,28.2446179 17,28.5244031 17,28.8696179 C17,29.2148328 16.7202149,29.4946179 16.375,29.4946179 L16.375,29.4946179 Z" id="Path" fill="#BDAD90" fill-rule="nonzero"></path>
        <path d="M18.9582519,29.2199597 C18.6130371,29.2199597 18.3330078,28.9401746 18.3330078,28.5949597 C18.3330078,28.2497449 18.6125488,27.9699597 18.9575195,27.9699597 L18.9582519,27.9699597 C19.3034668,27.9699597 19.5832519,28.2497449 19.5832519,28.5949597 C19.5832519,28.9401746 19.3034668,29.2199597 18.9582519,29.2199597 L18.9582519,29.2199597 Z" id="Path" fill="#BDAD90" fill-rule="nonzero"></path>
    </g>
</svg>