<?xml version="1.0" encoding="UTF-8"?>
<svg width="32px" height="32px" viewBox="0 0 32 32" version="1.1" xmlns="http://www.w3.org/2000/svg" xmlns:xlink="http://www.w3.org/1999/xlink">
    <title>ICONS/INGREDIENTES/32/32_verduras</title>
    <g id="ICONS/INGREDIENTES/32/32_verduras" stroke="none" stroke-width="1" fill="none" fill-rule="evenodd">
        <path d="M30.817,27.3537899 L28.238,27.3537899 C28.254,27.1087899 28.254,26.8647899 28.238,26.6257899 L30.817,26.6257899 L30.817,27.3537899 Z M28.833,30.4617899 L27.613,29.5687899 C27.727,29.3567899 27.828,29.1347899 27.913,28.9037899 L29.23,29.8697899 L28.833,30.4617899 Z M28.833,23.7047899 L29.23,24.2987899 L27.966,25.2247899 C27.888,24.9917899 27.793,24.7647899 27.683,24.5467899 L28.833,23.7047899 Z M25.576,22.4537899 C24.96,22.1587899 24.268,21.9997899 23.515,21.9787899 L23.504,21.9787899 C22.262,21.9787899 15.767,23.3037899 10.914,24.3167899 C10.928,23.6297899 11.086,22.9637899 11.37,22.3797899 L11.421,22.2717899 L10.371,21.7117899 L10.314,21.8277899 C9.912,22.6557899 9.712,23.5987899 9.732,24.5627899 C8.918,24.7307899 5.273,25.4637899 5.273,25.4637899 L5.172,25.4837899 L5.172,26.3417899 C2.923,26.0527899 1.18,24.0047899 1.18,21.6157899 C1.18,19.9247899 2.063,18.3357899 3.452,17.4917899 C3.348,17.9557899 3.186,18.8107899 3.186,18.8107899 L6.526,18.8107899 C6.82,19.2137899 7.447,19.9527899 7.475,19.9847899 L7.569,20.0957899 L7.663,19.9847899 C7.691,19.9527899 8.318,19.2137899 8.613,18.8107899 L12.02,18.8107899 C12.02,18.8107899 11.862,17.9787899 11.763,17.5267899 C12.381,17.9157899 12.904,18.4497899 13.288,19.0907899 C12.337,19.4817899 11.548,20.0647899 10.946,20.8237899 L10.872,20.9167899 L11.778,21.7047899 L11.858,21.6037899 C12.475,20.8267899 13.349,20.2807899 14.458,19.9827899 C17.383,19.1547899 18.785,17.1757899 18.838,17.0987899 C20.68,14.7947899 21.246,11.0597899 21.294,9.11778992 L23.633,9.11778992 C23.974,9.57578992 24.659,10.3817899 24.689,10.4167899 L24.783,10.5287899 L24.878,10.4167899 C24.907,10.3817899 25.591,9.57478992 25.932,9.11778992 L28.452,9.11778992 L28.452,10.2567899 C28.452,12.1697899 28.133,14.6807899 27.599,16.9757899 C27.066,19.2647899 26.35,21.2037899 25.576,22.4537899 L25.576,22.4537899 Z M5.277,16.0407899 C5.415,15.9317899 5.584,15.8737899 5.756,15.8717899 C5.639,16.1397899 5.578,16.4337899 5.578,16.7297899 C5.578,16.9687899 5.652,17.2547899 5.796,17.5837899 L4.646,17.5837899 C4.849,16.8027899 5.103,16.1787899 5.277,16.0407899 L5.277,16.0407899 Z M7.569,15.8767899 C8.016,15.8767899 8.38,16.2587899 8.38,16.7297899 C8.38,16.9627899 8.05,17.5597899 7.569,18.2087899 C7.087,17.5607899 6.76,16.9637899 6.76,16.7297899 C6.76,16.2587899 7.124,15.8767899 7.569,15.8767899 L7.569,15.8767899 Z M9.384,15.8747899 C9.585,15.8587899 9.775,15.9187899 9.929,16.0407899 C10.104,16.1797899 10.357,16.8037899 10.56,17.5837899 L9.342,17.5837899 C9.487,17.2547899 9.56,16.9687899 9.56,16.7297899 C9.56,16.4347899 9.5,16.1417899 9.384,15.8747899 L9.384,15.8747899 Z M21.821,5.40278992 C22.032,5.23578992 22.286,5.14178992 22.55,5.12878992 C22.38,5.48678992 22.291,5.88378992 22.291,6.28778992 C22.291,6.70678992 22.473,7.24578992 22.833,7.89178992 L20.682,7.89178992 C21.008,6.82578992 21.473,5.67978992 21.821,5.40278992 L21.821,5.40278992 Z M24.783,4.91078992 C25.506,4.91078992 26.094,5.52778992 26.094,6.28778992 C26.094,6.74378992 25.451,7.78078992 24.783,8.65078992 C24.116,7.78178992 23.472,6.74578992 23.472,6.28778992 C23.472,5.52778992 24.06,4.91078992 24.783,4.91078992 L24.783,4.91078992 Z M27.062,1.29978992 L27.062,2.02478992 C26.227,2.22778992 25.546,2.88378992 25.285,3.73678992 C25.122,3.70278992 24.951,3.68478992 24.782,3.68478992 C24.726,3.68478992 24.67,3.68678992 24.616,3.68978992 C24.918,2.46578992 25.876,1.52978992 27.062,1.29978992 L27.062,1.29978992 Z M27.276,6.28778992 C27.276,5.88378992 27.185,5.48778992 27.015,5.12878992 C27.281,5.14078992 27.535,5.23478992 27.748,5.40278992 C28.125,5.70278992 28.633,6.89478992 28.978,7.89178992 L26.734,7.89178992 C27.093,7.24578992 27.276,6.70678992 27.276,6.28778992 L27.276,6.28778992 Z M32,25.8977899 C32,25.6227899 31.777,25.3997899 31.504,25.3997899 L29.777,25.3997899 L30.508,24.8367899 C30.719,24.6747899 30.766,24.3757899 30.615,24.1567899 L29.412,22.4197899 C29.255,22.1857899 28.935,22.1287899 28.708,22.2957899 L27.009,23.5407899 C26.877,23.3887899 26.731,23.2437899 26.576,23.1087899 C28.661,19.7397899 29.634,13.4697899 29.634,10.2567899 L29.634,9.11778992 L30.598,9.11778992 L30.546,8.95478992 C30.496,8.80178992 30.44,8.61578992 30.38,8.40778992 C30.024,7.21178992 29.486,5.40378992 28.464,4.42878992 C27.9,3.98078992 27.17,3.81178992 26.473,3.95278992 C26.731,3.35578992 27.243,3.12678992 28.112,3.18478992 L28.245,3.19378992 L28.245,0.0297899223 L28.132,0.0197899223 C26.95,-0.0932100777 25.8,0.280789922 24.891,1.06278992 C24.012,1.81878992 23.472,2.86478992 23.359,4.02178992 C22.593,3.77178992 21.742,3.92278992 21.095,4.43678992 C20.083,5.40878992 19.601,7.29778992 19.312,8.42678992 C19.261,8.62878992 19.215,8.80978992 19.172,8.95878992 L19.129,9.11778992 L20.109,9.11778992 C19.959,15.9007899 16.153,18.0817899 15.194,18.4717899 L14.404,18.7167899 L14.012,18.0187899 C13.361,17.1187899 12.472,16.4177899 11.468,16.0167899 C11.242,15.2937899 9.784,14.1897899 8.5,14.8927899 C7.94,14.5827899 7.236,14.5757899 6.671,14.8747899 C6.465,14.7647899 4.67,14.2997899 3.965,15.9157899 C1.59,16.7157899 0,18.9997899 0,21.6157899 C0,24.6877899 2.263,27.2837899 5.172,27.5757899 L5.172,28.4957899 L5.272,28.5167899 C5.373,28.5367899 18.672,31.2257899 18.672,31.2257899 C19.491,31.3687899 19.701,30.1617899 18.882,30.0187899 C18.882,30.0187899 17.629,29.7777899 17.037,29.6607899 L17.037,25.8907899 C17.037,25.8877899 17.039,25.8857899 17.039,25.8827899 C17.039,25.5547899 16.774,25.2887899 16.447,25.2887899 C16.12,25.2887899 15.854,25.5547899 15.854,25.8827899 C15.854,25.8847899 15.855,25.8857899 15.855,25.8877899 L15.855,29.4247899 C13.331,28.9167899 10.723,28.3697899 8.809,27.9677899 C7.625,27.7187899 6.828,27.5517899 6.355,27.4557899 L6.355,26.5207899 C6.791,26.4317899 7.51,26.2817899 8.558,26.0617899 C9.563,25.8507899 10.816,25.5867899 12.167,25.3057899 L12.167,27.1137899 L13.348,27.1137899 L13.348,25.0617899 C15.961,24.5237899 18.016,24.1147899 19.622,23.8127899 L19.622,28.0827899 C19.622,28.0857899 19.62,28.0877899 19.62,28.0907899 C19.62,28.4187899 19.884,28.6847899 20.211,28.6847899 C20.537,28.6847899 20.801,28.4187899 20.801,28.0907899 L20.802,28.0907899 L20.802,23.5947899 C22.244,23.3377899 23.15,23.2067899 23.494,23.2057899 C25.95,23.2737899 27.068,25.2147899 27.068,26.9887899 C27.068,28.4447899 26.284,30.1057899 24.537,30.6157899 L24.537,27.8417899 L23.356,27.8417899 L23.356,30.7677899 C23.108,30.7507899 21.544,30.5117899 21.544,30.5117899 C20.707,30.3827899 20.522,31.5937899 21.359,31.7227899 C21.359,31.7227899 23.173,31.9997899 23.518,31.9997899 C24.883,31.9627899 26.051,31.4627899 26.906,30.5507899 L28.708,31.8717899 C28.935,32.0387899 29.255,31.9817899 29.412,31.7477899 L30.603,29.9657899 C30.753,29.7447899 30.7,29.4437899 30.484,29.2867899 L29.52,28.5797899 L31.504,28.5797899 C31.777,28.5797899 32,28.3567899 32,28.0817899 L32,25.8977899 Z" id="Fill-1" fill="#BDAD90"></path>
    </g>
</svg>