<?xml version="1.0" encoding="UTF-8"?>
<svg width="32px" height="32px" viewBox="0 0 32 32" version="1.1" xmlns="http://www.w3.org/2000/svg" xmlns:xlink="http://www.w3.org/1999/xlink">
    <title>ICONS/INGREDIENTES/32/32_vegan</title>
    <g id="ICONS/INGREDIENTES/32/32_vegan" stroke="none" stroke-width="1" fill="none" fill-rule="evenodd">
        <path d="M24.6324058,1.4384754 L30.4516705,1.4384754 C30.0962804,3.86652899 28.7759764,8.15506501 26.1730914,12.4872603 C23.1145525,17.5815093 19.5398046,20.5017225 16.3651187,20.5017225 C16.2618768,20.5017225 16.158635,20.4987457 16.0534078,20.4927922 C15.3932558,20.4560787 13.6629626,20.0929125 12.7764728,19.6096832 C16.6559826,11.934573 21.0239057,7.50910551 24.0119622,5.1465409 C26.4500574,3.21858498 28.3878269,2.31364633 29.2137614,1.97925562 C29.4897348,1.86713055 29.4391066,1.61906622 29.0469862,1.64784169 C26.1840112,1.861177 17.5722538,3.06676961 10.3155452,14.6176368 C9.92938111,12.7045647 9.4826617,8.38427644 12.2612564,5.01853971 C15.2165534,1.4384754 21.5758523,1.4384754 24.6324058,1.4384754 L24.6324058,1.4384754 Z M24.6324058,-0.000297677188 C20.4838716,-0.000297677188 14.5792338,0.419427157 11.2030278,4.04414305 C9.15010392,6.24695424 8.25765783,9.4192008 8.54752908,13.4735641 C8.63389483,14.6741954 9.09848302,16.5823062 9.94129362,18.1391579 C10.0107833,18.2125849 10.0852365,18.2036546 10.1636606,18.1322121 C13.4008872,11.1973259 19.3323282,6.27275292 22.2290554,4.84291017 C15.3317078,9.83396435 8.80662634,21.5624455 8.38968823,29.9162597 C7.53595781,27.3383752 5.84636575,24.5421942 3.36260586,21.59519 C5.04425624,21.8373008 6.4598604,22.678735 7.68585699,24.1601751 C7.7483977,24.2306254 7.81391655,24.2455093 7.88241353,24.1770435 L8.30828602,22.7779607 C8.30828602,22.7779607 8.34303087,22.5904241 8.23581821,22.50509 C6.48170002,20.8073377 3.78748565,19.7952353 1.00690554,19.7952353 C0.708099891,19.7952353 0.402345277,19.8121037 0.0955979525,19.8448482 C-0.00665115558,19.8805694 -0.018563673,19.9579655 0.0201520087,20.0552067 C2.83150613,22.9387064 6.38342175,27.271894 7.34833566,31.5306623 C7.41087638,31.8065098 7.65111215,32 7.93105631,32 L9.2086738,32 C9.52931906,32 9.78742361,31.760866 9.80926322,31.4413591 C9.97603847,28.911103 10.5041601,24.2048267 12.1550365,20.908548 C13.2926819,21.5019178 15.221517,21.8869137 15.9729983,21.9295807 C24.6850194,22.4157868 32.0002978,6.19138783 32.0002978,0.123734484 L32.0002978,-0.000297677188 L24.6324058,-0.000297677188 Z" id="Fill-1" fill="#BDAD90"></path>
    </g>
</svg>