<?xml version="1.0" encoding="utf-8"?>
<!-- Generator: Adobe Illustrator 24.0.3, SVG Export Plug-In . SVG Version: 6.00 Build 0)  -->
<svg version="1.1" id="Capa_1" xmlns="http://www.w3.org/2000/svg" xmlns:xlink="http://www.w3.org/1999/xlink" x="0px" y="0px"
	 width="17.531px" height="17.531px" viewBox="0 0 17.531 17.531" style="enable-background:new 0 0 17.531 17.531;"
	 xml:space="preserve">
<style type="text/css">
	.st0{fill:#BDAD91;}
</style>
<path class="st0" d="M17.341,12.773l-4.298-0.632c-0.072-0.012-0.145,0.012-0.197,0.063c-1.09,1.09-2.073,2.072-2.177,2.177
	c-0.188-0.076-2.184-0.899-4.291-3.005c-2.11-2.109-3.138-4.314-3.23-4.515c0.124-0.124,1.305-1.305,2.177-2.177
	c0.05-0.05,0.073-0.12,0.063-0.19L4.764,0.197c-0.015-0.119-0.12-0.205-0.239-0.197L0.213,0.281
	C0.098,0.289,0.006,0.383,0.003,0.499c-0.053,4.554,0.607,8.5,4.67,12.562c4.085,4.084,7.812,4.519,12.36,4.466
	c0.119,0,0.217-0.092,0.225-0.211l0.274-4.311C17.536,12.891,17.454,12.791,17.341,12.773z M16.586,16.83l-0.189,0.001
	c-4.41,0-7.661-0.698-11.229-4.265C1.499,8.898,0.699,5.376,0.7,0.951l3.434-0.224l0.527,3.63L2.309,6.71l0.204,0.443
	c0.191,0.417,1.254,2.601,3.371,4.718c2.129,2.128,4.143,3.005,4.524,3.159l0.43,0.173l2.34-2.34l3.626,0.538L16.586,16.83z"/>
</svg>
