<?xml version="1.0" encoding="UTF-8"?>
<svg width="32px" height="32px" viewBox="0 0 32 32" version="1.1" xmlns="http://www.w3.org/2000/svg" xmlns:xlink="http://www.w3.org/1999/xlink">
    <title>ICONS/INGREDIENTES/32/32_queso</title>
    <g id="ICONS/INGREDIENTES/32/32_queso" stroke="none" stroke-width="1" fill="none" fill-rule="evenodd">
        <path d="M30.934,21.2675821 L30.934,29.1006976 C30.933,29.8365205 30.455,30.6653211 29.868,30.6663209 L21.986,30.6433264 C21.725,29.098698 20.454,27.9949636 19.19,27.9999624 C17.926,28.0059609 16.668,29.119693 16.416,30.6663209 L2.133,30.6663209 C1.545,30.6653211 1.068,29.8365205 1.067,29.1006976 L1.067,13.333491 L30.925,13.333491 L30.907,14.7421521 C29.672,15.0740723 28.672,16.4417432 28.678,18.0183639 C28.685,19.5959843 29.698,20.9516582 30.934,21.2675821 M3.819,5.72732102 C5.13,3.81478116 6.799,2.33513715 8.676,1.41935748 C8.92,1.3003861 9.192,1.30638466 9.431,1.43835291 L11.814,2.73004214 C12.02,2.84401472 12.237,2.99597816 12.197,3.44287064 C12.147,3.94574965 12.16,4.58259643 12.259,5.07347832 C12.559,6.52113003 13.586,7.56687843 14.752,7.90079809 C15.918,8.23371799 17.246,7.72683995 18.02,6.58511464 C18.178,6.22720075 18.543,6.33117573 18.764,6.43814999 L28.901,12.0008117 L1.206,12.0008117 C1.684,9.68836802 2.578,7.5428842 3.819,5.72732102 M31.127,16.0468382 C31.633,15.9268671 31.998,15.3759996 32,14.7331543 L32,12.6666515 C32,12.6526548 31.995,12.6406577 31.995,12.6256613 C31.991,12.5726741 31.983,12.5196868 31.969,12.4686991 C31.954,12.3827198 31.918,12.3037388 31.87,12.2427534 C31.858,12.2257575 31.851,12.2057623 31.838,12.190766 C31.792,12.1337797 31.739,12.0887905 31.68,12.0557984 L31.676,12.0537989 L31.674,12.0527992 L18.948,5.14446125 C18.295,4.80254351 17.542,5.03848674 17.096,5.72232222 C16.582,6.48313917 15.772,6.82205763 14.995,6.60211055 C14.218,6.38216346 13.604,5.64034194 13.402,4.67757358 C13.334,4.34565343 13.317,4.00173618 13.351,3.66281772 C13.447,2.79602626 13.068,1.95522855 12.424,1.60831202 L9.856,0.214647324 C9.358,-0.0582870098 8.793,-0.0712838828 8.288,0.177656224 C6.247,1.17241689 4.434,2.78102987 3.009,4.85853004 C1.578,6.95302612 0.574,9.4494255 0.082,12.1347794 L0.014,12.5216863 C0.012,12.5426813 0.012,12.564676 0.014,12.5866707 C0.008,12.6136642 0.003,12.6406577 0,12.6666515 L0,29.3326417 C0.002,30.8052874 0.956,31.9980005 2.134,32 L16.587,32 C17.1,32 17.539,31.5451094 17.637,30.9162607 C17.793,29.9944825 18.446,29.3336415 19.2,29.3326417 C19.955,29.3326417 20.607,29.992483 20.764,30.915261 C20.861,31.5441097 21.301,31.9990002 21.814,32 L29.868,32 C31.045,31.9980005 31.999,30.8052874 32,29.3326417 L32,21.2675821 C31.999,20.6267363 31.635,20.0768686 31.132,19.9558977 C30.395,19.7579453 29.869,18.9451409 29.868,18.0033675 C29.866,17.0615941 30.391,16.2467901 31.127,16.0468382" id="Fill-1" fill="#BDAD90"></path>
        <path d="M26.5,27.7507814 C25.8090871,27.7507814 25.2494789,27.1912899 25.2494789,26.5005209 C25.2505211,25.8107939 25.8101292,25.2513024 26.5,25.2513024 C27.1909129,25.2513024 27.7505211,25.8107939 27.7505211,26.5005209 C27.7505211,27.1912899 27.1909129,27.7507814 26.5,27.7507814 M26.5,24 C25.1192163,24 24,25.120025 24,26.5005209 C24.0020842,27.8810169 25.1192163,28.9989581 26.5,29 C27.8807837,29 29,27.8810169 29,26.5005209 C29,25.120025 27.8807837,24 26.5,24" id="Fill-4" fill="#BDAD90"></path>
        <path d="M12.5,24.8331713 C11.2114476,24.8331713 10.1669908,23.7888596 10.1669908,22.5004862 C10.1689358,21.2121128 11.2114476,20.1687734 12.5,20.1668287 C13.7885524,20.1668287 14.8330092,21.2111404 14.8330092,22.5004862 C14.8330092,23.7888596 13.7885524,24.8331713 12.5,24.8331713 M12.5,19 C10.5676577,19 9,20.5674399 9,22.5004862 C9.00194498,24.4315877 10.5676577,25.9980553 12.5,26 C14.4323423,26 16,24.4325601 16,22.5004862 C16,20.5674399 14.4323423,19 12.5,19" id="Fill-6" fill="#BDAD90"></path>
        <path d="M22.0010003,19.7998 C21.0066689,19.7998 20.1993998,18.9936656 20.1993998,17.9994999 C20.2014005,17.0063344 21.0066689,16.2012002 22.0010003,16.2002 C22.9943314,16.2002 23.8006002,17.0063344 23.8006002,17.9994999 C23.8006002,18.9936656 22.9943314,19.7998 22.0010003,19.7998 M25,17.9994999 C25,16.3432239 23.6575525,15 22.0010003,15 C20.3434478,15 19,16.3432239 19,17.9994999 C19.0020007,19.655776 20.3444481,20.9979997 22.0010003,21 C23.6575525,21 25,19.6567761 25,17.9994999" id="Fill-8" fill="#BDAD90"></path>
        <path d="M4.99888889,17.6662962 C4.63222222,17.6662962 4.33222222,17.3673243 4.33222222,16.9994443 C4.33333333,16.6315643 4.63222222,16.3337038 4.99888889,16.3337038 C5.36777778,16.3337038 5.66666667,16.6315643 5.66666667,16.9994443 C5.66666667,17.3673243 5.36777778,17.6662962 4.99888889,17.6662962 M4.99888889,15 C3.89555556,15 3,15.894693 3,16.9994443 C3.00111111,18.1041956 3.89666667,18.9988886 4.99888889,19 C6.10333333,19 7,18.105307 7,16.9994443 C7,15.8958044 6.10333333,15 4.99888889,15" id="Fill-10" fill="#BDAD90"></path>
        <path d="M4.99944429,27.6670372 C4.63156432,27.6670372 4.33259239,27.3679822 4.33259239,27 C4.33259239,26.6309061 4.63156432,26.3329628 4.99944429,26.3329628 C5.36732426,26.3329628 5.66629619,26.6320178 5.66629619,27 C5.66629619,27.3679822 5.36843568,27.6670372 4.99944429,27.6670372 M4.99944429,25 C3.89580439,25.0011117 3,25.8949416 3,27 C3,28.1050584 3.89469297,29 4.99944429,29 C6.10419561,29 7,28.1050584 7,27 C7,25.8949416 6.10419561,25 4.99944429,25" id="Fill-12" fill="#BDAD90"></path>
        <path d="M19.8547905,25.1396226 C19.6546933,24.9534591 19.3453762,24.9534591 19.1444452,25.1396226 C19.1010908,25.1890985 19.06524,25.2444444 19.0393941,25.3056604 C18.9868686,25.4280922 18.9868686,25.566457 19.0393941,25.6880503 C19.0852498,25.8146751 19.1836309,25.9136268 19.3095255,25.9597484 C19.4304176,26.0134172 19.5679844,26.0134172 19.690544,25.9597484 C19.7505732,25.9337526 19.8055999,25.8985325 19.8547905,25.8540881 C19.9473355,25.7584906 19.999861,25.6301887 19.999861,25.4968553 C20.0015285,25.4314465 19.9881887,25.3660377 19.9598416,25.3056604 C19.9348294,25.2444444 19.8989787,25.1890985 19.8547905,25.1396226" id="Fill-14" fill="#BDAD90"></path>
        <path d="M12.8548208,28.1396226 C12.6547652,27.9534591 12.3455126,27.9534591 12.1446235,28.1396226 C12.1012781,28.1890985 12.0654348,28.2444444 12.0387608,28.3056604 C11.9870797,28.4272537 11.9870797,28.566457 12.0387608,28.6880503 C12.0854404,28.8138365 12.1838011,28.9136268 12.3096694,28.9597484 C12.4305363,29.0134172 12.5680745,29.0134172 12.6897749,28.9597484 C12.7506252,28.9337526 12.8056405,28.8985325 12.8548208,28.8540881 C12.9473465,28.7584906 12.9998611,28.6301887 12.9998611,28.4968553 C13.0015282,28.4314465 12.9881912,28.3660377 12.95985,28.3056604 C12.934843,28.2444444 12.8989997,28.1890985 12.8548208,28.1396226" id="Fill-16" fill="#BDAD90"></path>
        <path d="M14.5,16.9999752 C14.6675555,17.0016434 14.8242741,16.9190691 14.9168048,16.7797772 C15.0093355,16.6404853 15.0260077,16.4636597 14.9601525,16.3093543 C14.9359778,16.2484662 14.9001326,16.1925826 14.8551177,16.1442058 C14.7117368,16.0024116 14.4966656,15.9607075 14.3091034,16.0391113 C14.2474163,16.0616315 14.192398,16.0974971 14.1448823,16.1442058 C14.100701,16.1934167 14.0656894,16.2484662 14.0398475,16.3093543 C13.9739923,16.4636597 13.9906645,16.6396512 14.0831952,16.7789431 C14.1757259,16.918235 14.3332781,17.0016434 14.5,16.9999752" id="Fill-18" fill="#BDAD90"></path>
        <path d="M26.5005036,22.9999754 C26.6671156,23.0016323 26.824564,22.9196128 26.9170337,22.7812566 C27.0095034,22.6429005 27.0261646,22.4672627 26.9595198,22.3139939 C26.8862105,22.1251005 26.7037703,22 26.4996705,22 C26.2955707,22 26.1131305,22.1251005 26.0398212,22.3139939 C25.9740095,22.4672627 25.9906707,22.6429005 26.0831404,22.7812566 C26.1764431,22.9196128 26.3330585,23.0016323 26.5005036,22.9999754" id="Fill-20" fill="#BDAD90"></path>
    </g>
</svg>