<?xml version="1.0" encoding="UTF-8"?>
<svg width="32px" height="32px" viewBox="0 0 32 32" version="1.1" xmlns="http://www.w3.org/2000/svg" xmlns:xlink="http://www.w3.org/1999/xlink">
    <title>ICONS/ALERGENOS/32/32_lacteos_circle_gray_borde</title>
    <g id="ICONS/ALERGENOS/32/32_lacteos_circle_gray_borde" stroke="none" stroke-width="1" fill="none" fill-rule="evenodd">
        <path d="M6.02963684,3.4879 C12.9396368,-2.0191 23.0066368,-0.8811 28.5126368,6.0289 C34.0196368,12.9399 32.8816368,23.0059 25.9706368,28.5119 C19.0606368,34.0189 8.99463684,32.8819 3.48763684,25.9699 C-2.01936316,19.0599 -0.881363164,8.9939 6.02963684,3.4879" id="Fill-1" stroke="none" stroke-width="0.5"></path>
        <path d="M18.9976,10.9228 C18.7866,11.0808 18.6336,11.1938 18.2936,11.1938 C17.9526,11.1938 17.8006,11.0808 17.5886,10.9228 C17.3426,10.7378 17.0346,10.5088 16.4576,10.5088 C15.8806,10.5088 15.5736,10.7378 15.3266,10.9228 C15.1156,11.0808 14.9626,11.1938 14.6226,11.1938 C14.2826,11.1938 14.1296,11.0808 13.9176,10.9228 C13.7626,10.8058 13.5816,10.6718 13.3256,10.5888 L14.6806,7.9028 C14.7056,7.8538 14.7186,7.7988 14.7186,7.7428 L14.7186,6.6748 L18.1976,6.6748 L18.1976,7.7428 C18.1976,7.7988 18.2106,7.8538 18.2356,7.9028 L19.5906,10.5888 C19.3336,10.6718 19.1536,10.8058 18.9976,10.9228 L18.9976,10.9228 Z M13.7596,12.8898 C13.6506,13.1058 13.5216,13.6448 13.5216,13.8848 L13.5216,22.2228 C13.5216,22.4188 13.3626,22.5788 13.1656,22.5788 C12.9696,22.5788 12.8106,22.4188 12.8106,22.2228 L12.8106,13.8848 C12.8106,13.5338 12.9656,12.8828 13.1236,12.5688 C13.2116,12.3938 13.4266,12.3228 13.6016,12.4118 C13.7776,12.4998 13.8476,12.7148 13.7596,12.8898 L13.7596,12.8898 Z M13.5216,25.0708 C13.5216,25.2678 13.3626,25.4268 13.1656,25.4268 C12.9696,25.4268 12.8106,25.2678 12.8106,25.0708 L12.8106,23.6468 C12.8106,23.4498 12.9696,23.2908 13.1656,23.2908 C13.3626,23.2908 13.5216,23.4498 13.5216,23.6468 L13.5216,25.0708 Z M14.2446,5.9628 L18.6726,5.9628 L18.6726,5.2508 L14.2446,5.2508 L14.2446,5.9628 Z M21.0636,11.9278 L18.9096,7.6578 L18.9096,6.6748 L19.0276,6.6748 C19.2256,6.6748 19.3846,6.5158 19.3846,6.3188 L19.3846,4.8948 C19.3846,4.6978 19.2256,4.5388 19.0276,4.5388 L13.8876,4.5388 C13.6906,4.5388 13.5316,4.6978 13.5316,4.8948 L13.5316,6.3188 C13.5316,6.5158 13.6906,6.6748 13.8876,6.6748 L14.0066,6.6748 L14.0066,7.6578 L11.8516,11.9278 C11.5906,12.4448 11.3856,13.3048 11.3856,13.8848 L11.3856,25.5458 C11.3856,26.2658 11.9716,26.8518 12.6916,26.8518 L20.2246,26.8518 C20.9446,26.8518 21.5296,26.2658 21.5296,25.5458 L21.5296,13.8848 C21.5296,13.3048 21.3256,12.4448 21.0636,11.9278 L21.0636,11.9278 Z" id="Fill-5" fill="#999999"></path>
    </g>
</svg>